<svg width="500" height="384" viewBox="0 0 500 384" fill="none" xmlns="http://www.w3.org/2000/svg">
<path d="M500 338.762H0V339.012H500V338.762Z" fill="#EBEBEB"/>
<path d="M449.9 348.281H359V348.531H449.9V348.281Z" fill="#EBEBEB"/>
<path d="M331.22 345.57H306.33V345.82H331.22V345.57Z" fill="#EBEBEB"/>
<path d="M388.11 357.57H349.52V357.82H388.11V357.57Z" fill="#EBEBEB"/>
<path d="M75.1 355.891H52.46V356.141H75.1V355.891Z" fill="#EBEBEB"/>
<path d="M110.89 355.891H84V356.141H110.89V355.891Z" fill="#EBEBEB"/>
<path d="M225.15 351.67H178.31V351.92H225.15V351.67Z" fill="#EBEBEB"/>
<path d="M237 294.161H43.91C42.3973 294.159 40.9475 293.556 39.8788 292.485C38.8102 291.415 38.21 289.964 38.21 288.451V17.0213C38.2231 15.5174 38.8292 14.0793 39.8964 13.0195C40.9637 11.9598 42.4059 11.3639 43.91 11.3613H237C238.514 11.3613 239.967 11.9629 241.038 13.0337C242.108 14.1046 242.71 15.5569 242.71 17.0713V288.451C242.71 289.966 242.108 291.418 241.038 292.489C239.967 293.56 238.514 294.161 237 294.161V294.161ZM43.91 11.5613C42.4636 11.564 41.0774 12.1404 40.0556 13.1641C39.0338 14.1877 38.46 15.575 38.46 17.0213V288.451C38.46 289.898 39.0338 291.285 40.0556 292.309C41.0774 293.332 42.4636 293.909 43.91 293.911H237C238.447 293.909 239.834 293.333 240.858 292.309C241.881 291.286 242.457 289.899 242.46 288.451V17.0213C242.457 15.5741 241.881 14.1868 240.858 13.1634C239.834 12.1401 238.447 11.564 237 11.5613H43.91Z" fill="#EBEBEB"/>
<path d="M453.31 294.161H260.21C258.696 294.159 257.246 293.556 256.175 292.486C255.105 291.416 254.503 289.965 254.5 288.451V17.0213C254.516 15.5164 255.124 14.0784 256.193 13.0189C257.262 11.9594 258.705 11.3639 260.21 11.3613H453.31C454.812 11.3665 456.252 11.9636 457.317 13.0231C458.382 14.0825 458.987 15.5191 459 17.0213V288.451C459 289.962 458.401 291.412 457.335 292.482C456.268 293.552 454.821 294.156 453.31 294.161V294.161ZM260.21 11.5613C258.763 11.564 257.375 12.1401 256.352 13.1634C255.329 14.1868 254.753 15.5741 254.75 17.0213V288.451C254.753 289.899 255.329 291.286 256.352 292.309C257.375 293.333 258.763 293.909 260.21 293.911H453.31C454.757 293.909 456.145 293.333 457.168 292.309C458.191 291.286 458.767 289.899 458.77 288.451V17.0213C458.767 15.5741 458.191 14.1868 457.168 13.1634C456.145 12.1401 454.757 11.564 453.31 11.5613H260.21Z" fill="#EBEBEB"/>
<path d="M429.17 218.471C427.688 218.476 426.213 218.668 424.78 219.041C423.362 217.111 421.565 215.491 419.499 214.28C417.433 213.068 415.142 212.291 412.765 211.995C410.389 211.699 407.977 211.891 405.677 212.56C403.377 213.228 401.238 214.358 399.39 215.881C396.357 210.757 391.779 206.725 386.313 204.365C380.846 202.004 374.773 201.435 368.963 202.74C363.154 204.045 357.907 207.156 353.975 211.628C350.044 216.1 347.63 221.702 347.08 227.631C343.931 226.931 340.659 227.003 337.544 227.841C334.429 228.679 331.562 230.259 329.19 232.444C326.817 234.63 325.008 237.357 323.917 240.393C322.827 243.429 322.487 246.684 322.926 249.88C323.366 253.076 324.572 256.118 326.442 258.747C328.312 261.376 330.79 263.513 333.664 264.977C336.539 266.441 339.725 267.188 342.951 267.153C346.177 267.119 349.347 266.305 352.19 264.781C353.462 269.377 356.085 273.485 359.719 276.573C363.353 279.661 367.83 281.587 372.571 282.101C377.312 282.615 382.098 281.693 386.309 279.456C390.52 277.218 393.962 273.768 396.19 269.551C400.006 272.808 404.666 274.918 409.632 275.637C414.597 276.356 419.665 275.655 424.248 273.613C428.831 271.572 432.743 268.275 435.531 264.104C438.318 259.932 439.868 255.057 440 250.041C442.913 247.793 445.05 244.69 446.109 241.166C447.169 237.642 447.099 233.875 445.909 230.393C444.719 226.911 442.469 223.889 439.474 221.75C436.479 219.612 432.89 218.466 429.21 218.471H429.17Z" fill="#F5F5F5"/>
<path d="M72.67 112.68C70.4248 111.701 67.8828 111.654 65.6027 112.548C63.3225 113.443 61.4908 115.206 60.51 117.45C59.3886 116.888 58.1645 116.56 56.9122 116.486C55.6599 116.412 54.4057 116.594 53.2261 117.021C52.0464 117.447 50.9659 118.11 50.0505 118.968C49.1351 119.825 48.404 120.86 47.9016 122.01C47.3993 123.159 47.1363 124.399 47.1286 125.654C47.1209 126.908 47.3688 128.151 47.857 129.306C48.3453 130.462 49.0637 131.506 49.9685 132.375C50.8734 133.244 51.9456 133.919 53.12 134.36L70.05 141.75L77.44 124.82C78.4155 122.578 78.461 120.04 77.5667 117.763C76.6723 115.487 74.9112 113.659 72.67 112.68V112.68Z" fill="#F5F5F5"/>
<path d="M151.61 32.0214C151.233 31.3032 150.718 30.6665 150.095 30.1475C149.471 29.6286 148.752 29.2376 147.977 28.9971C147.202 28.7565 146.388 28.6711 145.58 28.7456C144.773 28.8201 143.987 29.0531 143.27 29.4314C142.479 28.0309 141.174 26.9937 139.631 26.54C138.088 26.0864 136.43 26.252 135.007 27.0018C133.584 27.7516 132.51 29.0263 132.012 30.5555C131.514 32.0846 131.632 33.7476 132.34 35.1914L138.1 46.1214L149 40.3614C149.72 39.9861 150.358 39.4724 150.879 38.8498C151.4 38.2272 151.793 37.5078 152.036 36.7331C152.278 35.9583 152.366 35.1433 152.292 34.3348C152.219 33.5263 151.987 32.7401 151.61 32.0214Z" fill="#E6E6E6"/>
<path d="M403 7.20075C402.622 6.48345 402.107 5.84766 401.483 5.32973C400.859 4.8118 400.139 4.42189 399.365 4.18229C398.59 3.94268 397.776 3.85807 396.969 3.93331C396.162 4.00854 395.377 4.24214 394.66 4.62074C394.283 3.9011 393.768 3.26274 393.145 2.7421C392.521 2.22147 391.801 1.82876 391.026 1.5864C390.25 1.34404 389.435 1.25677 388.626 1.32958C387.817 1.40239 387.03 1.63385 386.31 2.01075C385.591 2.38764 384.952 2.90259 384.432 3.52619C383.911 4.14979 383.518 4.86983 383.276 5.6452C383.034 6.42057 382.946 7.23608 383.019 8.04517C383.092 8.85427 383.323 9.6411 383.7 10.3607L389.46 21.2807L400.38 15.5307C401.829 14.7705 402.918 13.4675 403.409 11.9065C403.9 10.3455 403.753 8.65357 403 7.20075V7.20075Z" fill="#F5F5F5"/>
<path d="M443 187.93C442.81 186.734 442.155 185.662 441.177 184.948C440.198 184.234 438.977 183.936 437.78 184.12C437.544 182.972 436.875 181.959 435.912 181.291C434.949 180.623 433.766 180.352 432.608 180.533C431.45 180.715 430.406 181.335 429.693 182.266C428.981 183.196 428.654 184.365 428.78 185.53L430.19 194.53L439.19 193.12C440.381 192.933 441.45 192.282 442.164 191.31C442.878 190.338 443.178 189.123 443 187.93V187.93Z" fill="#EBEBEB"/>
<path d="M350.53 110.621C350.062 110.474 349.569 110.42 349.081 110.464C348.592 110.507 348.117 110.647 347.682 110.875C347.247 111.102 346.861 111.413 346.547 111.79C346.233 112.167 345.996 112.602 345.85 113.071C345.381 112.924 344.888 112.872 344.399 112.916C343.91 112.96 343.434 113.1 342.999 113.328C342.564 113.556 342.178 113.867 341.864 114.245C341.549 114.622 341.312 115.057 341.165 115.526C341.019 115.995 340.966 116.488 341.01 116.977C341.054 117.466 341.194 117.942 341.422 118.377C341.65 118.812 341.962 119.198 342.339 119.512C342.716 119.827 343.151 120.064 343.62 120.211L350.76 122.441L352.99 115.301C353.284 114.354 353.19 113.329 352.729 112.452C352.268 111.574 351.477 110.916 350.53 110.621V110.621Z" fill="#F5F5F5"/>
<path d="M73.3898 19.36C72.4416 19.0657 71.4154 19.1594 70.5363 19.6205C69.6571 20.0817 68.9967 20.8726 68.6998 21.82C68.2316 21.6742 67.7393 21.6221 67.251 21.6665C66.7627 21.711 66.2879 21.8513 65.8538 22.0792C65.4197 22.3072 65.0347 22.6184 64.7209 22.9952C64.4071 23.3719 64.1705 23.8068 64.0248 24.275C63.879 24.7431 63.8269 25.2354 63.8714 25.7237C63.9158 26.212 64.0561 26.6868 64.284 27.1209C64.512 27.555 64.8232 27.94 65.2 28.2538C65.5767 28.5676 66.0116 28.8042 66.4798 28.95L73.6098 31.18L75.8398 24.04C75.9869 23.5718 76.0402 23.0792 75.9967 22.5905C75.9531 22.1017 75.8136 21.6263 75.586 21.1915C75.3584 20.7568 75.0472 20.3712 74.6704 20.0569C74.2935 19.7426 73.8583 19.5058 73.3898 19.36Z" fill="#F5F5F5"/>
<path d="M184.91 186.28C184.904 180.325 182.683 174.584 178.68 170.175C174.677 165.765 169.177 163.001 163.25 162.42C160.291 155.768 155.629 150.014 149.735 145.739C143.842 141.465 136.925 138.82 129.683 138.072C122.441 137.325 115.129 138.501 108.487 141.482C101.844 144.463 96.1056 149.143 91.8499 155.05C88.3221 152.479 84.0841 151.064 79.719 151C75.3539 150.936 71.0762 152.226 67.4745 154.693C63.8728 157.16 61.124 160.682 59.6064 164.775C58.0888 168.869 57.8769 173.332 58.9999 177.55C55.6633 180.36 52.9382 183.824 50.9929 187.728C49.0476 191.633 47.9235 195.894 47.6898 200.25C47.4562 204.606 48.1181 208.963 49.6347 213.053C51.1512 217.143 53.4901 220.878 56.5071 224.029C59.524 227.179 63.1548 229.678 67.1752 231.37C71.1956 233.062 75.5203 233.912 79.8821 233.867C84.2439 233.822 88.5502 232.884 92.535 231.109C96.5198 229.335 100.098 226.762 103.05 223.55C106.978 228.654 112.28 232.531 118.335 234.725C124.39 236.919 130.945 237.339 137.231 235.936C143.516 234.533 149.271 231.365 153.818 226.805C158.365 222.244 161.516 216.48 162.9 210.19C168.899 209.691 174.491 206.956 178.568 202.528C182.644 198.099 184.908 192.3 184.91 186.28V186.28Z" fill="#EBEBEB"/>
<path d="M346.8 73.7798C346.803 69.7431 348.308 65.852 351.021 62.8633C353.734 59.8746 357.462 58.002 361.48 57.6098C363.474 53.0913 366.627 49.1806 370.621 46.2744C374.614 43.3683 379.305 41.5701 384.218 41.0624C389.131 40.5547 394.09 41.3555 398.594 43.3835C403.097 45.4115 406.984 48.5946 409.86 52.6098C412.252 50.8797 415.12 49.9312 418.072 49.8941C421.024 49.8571 423.915 50.7333 426.35 52.4028C428.785 54.0723 430.644 56.4536 431.674 59.2205C432.703 61.9875 432.852 65.0049 432.1 67.8598C434.37 69.7609 436.225 72.108 437.551 74.7557C438.876 77.4033 439.644 80.295 439.806 83.2514C439.968 86.2079 439.521 89.1661 438.493 91.9428C437.464 94.7194 435.877 97.2552 433.828 99.393C431.78 101.531 429.314 103.225 426.583 104.371C423.853 105.516 420.917 106.089 417.956 106.053C414.995 106.017 412.073 105.373 409.372 104.162C406.67 102.95 404.246 101.197 402.25 99.0098C399.593 102.471 396.004 105.102 391.904 106.594C387.803 108.085 383.362 108.376 379.103 107.431C374.843 106.485 370.942 104.344 367.857 101.258C364.773 98.1721 362.633 94.2698 361.69 90.0098C357.623 89.6683 353.834 87.8093 351.076 84.8023C348.317 81.7953 346.791 77.8605 346.8 73.7798V73.7798Z" fill="#F0F0F0"/>
<path d="M250 383.921C357.083 383.921 443.89 378.853 443.89 372.601C443.89 366.349 357.083 361.281 250 361.281C142.918 361.281 56.1104 366.349 56.1104 372.601C56.1104 378.853 142.918 383.921 250 383.921Z" fill="#F5F5F5"/>
<path d="M136.11 347.112H81.78C80.5077 347.099 79.292 346.584 78.3969 345.68C77.5019 344.776 76.9999 343.555 77 342.282V319.992C77.0024 318.854 77.4061 317.752 78.14 316.882L139.54 243.882C139.994 243.343 140.561 242.91 141.2 242.613C141.839 242.316 142.535 242.162 143.24 242.162H166.77C168.051 242.162 169.28 242.671 170.185 243.577C171.091 244.483 171.6 245.711 171.6 246.992V314.992C171.6 316.273 172.109 317.502 173.015 318.407C173.92 319.313 175.149 319.822 176.43 319.822H182.64C183.921 319.822 185.15 320.331 186.055 321.237C186.961 322.143 187.47 323.371 187.47 324.652V342.242C187.47 343.523 186.961 344.752 186.055 345.657C185.15 346.563 183.921 347.072 182.64 347.072H176.43C175.149 347.072 173.92 347.581 173.015 348.487C172.109 349.393 171.6 350.621 171.6 351.902V365.902C171.6 367.183 171.091 368.412 170.185 369.317C169.28 370.223 168.051 370.732 166.77 370.732H145.77C144.489 370.732 143.26 370.223 142.355 369.317C141.449 368.412 140.94 367.183 140.94 365.902V351.902C140.929 350.628 140.416 349.41 139.511 348.513C138.607 347.615 137.384 347.112 136.11 347.112V347.112ZM140.94 316.482V289.282C140.951 288.58 140.744 287.891 140.346 287.312C139.948 286.733 139.379 286.293 138.719 286.052C138.059 285.811 137.341 285.782 136.663 285.968C135.986 286.155 135.384 286.547 134.94 287.092L111.83 314.292C111.412 314.783 111.144 315.384 111.056 316.023C110.968 316.662 111.065 317.313 111.335 317.898C111.606 318.484 112.038 318.98 112.581 319.328C113.124 319.676 113.755 319.861 114.4 319.862H137.52C137.967 319.867 138.411 319.784 138.826 319.616C139.24 319.449 139.618 319.201 139.936 318.886C140.254 318.572 140.507 318.198 140.679 317.785C140.851 317.372 140.94 316.929 140.94 316.482V316.482Z" fill="#263238"/>
<path d="M198.37 307.022C198.37 283.022 202.703 266.205 211.37 256.572C220.037 246.939 233.213 242.139 250.9 242.172C259.407 242.172 266.407 243.222 271.9 245.322C276.865 247.113 281.411 249.9 285.26 253.512C288.505 256.606 291.254 260.181 293.41 264.112C295.546 268.227 297.155 272.595 298.2 277.112C300.587 286.759 301.775 296.664 301.74 306.602C301.74 329.542 297.857 346.329 290.09 356.962C282.323 367.595 268.96 372.929 250 372.962C239.333 372.962 230.737 371.265 224.21 367.872C217.56 364.424 211.961 359.25 208 352.892C204.947 348.225 202.573 341.859 200.88 333.792C199.127 324.978 198.286 316.008 198.37 307.022V307.022ZM233.21 307.102C233.21 323.202 234.633 334.202 237.48 340.102C240.327 346.002 244.45 348.952 249.85 348.952C251.567 348.969 253.27 348.645 254.861 347.999C256.452 347.354 257.9 346.4 259.12 345.192C261.74 342.692 263.667 338.739 264.9 333.332C266.133 327.925 266.75 319.505 266.75 308.072C266.75 291.292 265.327 280.012 262.48 274.232C259.633 268.452 255.367 265.562 249.68 265.562C243.867 265.562 239.67 268.509 237.09 274.402C234.51 280.295 233.217 291.195 233.21 307.102Z" fill="#263238"/>
<path d="M371.69 347.112H317.37C316.089 347.112 314.861 346.603 313.955 345.697C313.049 344.792 312.54 343.563 312.54 342.282V319.992C312.54 318.855 312.94 317.754 313.67 316.882L375.08 243.882C375.532 243.344 376.097 242.911 376.735 242.613C377.372 242.316 378.067 242.162 378.77 242.162H402.31C403.591 242.162 404.82 242.671 405.725 243.577C406.631 244.483 407.14 245.711 407.14 246.992V314.992C407.135 315.632 407.257 316.267 407.499 316.86C407.741 317.452 408.099 317.991 408.551 318.444C409.003 318.897 409.541 319.256 410.133 319.499C410.725 319.743 411.36 319.866 412 319.862H418.2C419.481 319.862 420.71 320.371 421.615 321.277C422.521 322.183 423.03 323.411 423.03 324.692V342.282C423.03 343.563 422.521 344.792 421.615 345.697C420.71 346.603 419.481 347.112 418.2 347.112H412C410.719 347.112 409.491 347.621 408.585 348.527C407.679 349.433 407.17 350.661 407.17 351.942V365.942C407.17 367.223 406.661 368.452 405.755 369.357C404.85 370.263 403.621 370.772 402.34 370.772H381.34C380.059 370.772 378.831 370.263 377.925 369.357C377.019 368.452 376.51 367.223 376.51 365.942V351.942C376.51 350.663 376.003 349.436 375.099 348.53C374.195 347.625 372.969 347.115 371.69 347.112V347.112ZM376.52 316.482V289.282C376.519 288.591 376.306 287.918 375.911 287.352C375.515 286.785 374.956 286.354 374.308 286.115C373.659 285.877 372.954 285.843 372.286 286.017C371.617 286.192 371.019 286.567 370.57 287.092L347.45 314.292C347.033 314.782 346.765 315.381 346.677 316.018C346.588 316.655 346.683 317.304 346.951 317.889C347.219 318.474 347.648 318.97 348.188 319.32C348.728 319.669 349.357 319.857 350 319.862H373.11C373.556 319.866 373.999 319.782 374.413 319.613C374.826 319.445 375.202 319.197 375.519 318.883C375.837 318.569 376.088 318.195 376.26 317.783C376.432 317.371 376.52 316.929 376.52 316.482V316.482Z" fill="#263238"/>
<path d="M157.82 255.242C156.89 257.242 155.91 259.042 154.96 260.902L152.16 266.452L149.36 272.022C148.42 273.892 147.45 275.762 146.3 277.602C146.472 275.459 146.884 273.343 147.53 271.292C148.143 269.227 148.936 267.219 149.9 265.292C150.859 263.363 151.998 261.529 153.3 259.812C154.587 258.086 156.108 256.548 157.82 255.242Z" fill="white"/>
<path d="M161.38 259.941C160.51 261.671 159.61 263.301 158.73 264.941L156.14 269.841L153.55 274.761C152.68 276.411 151.79 278.071 150.73 279.691C150.917 277.783 151.316 275.901 151.92 274.081C152.504 272.258 153.244 270.489 154.13 268.791C155.014 267.087 156.062 265.472 157.26 263.971C158.436 262.44 159.823 261.083 161.38 259.941Z" fill="white"/>
<path d="M151.66 253.271C150.89 255.071 150.07 256.761 149.27 258.461L146.92 263.551L144.57 268.651C143.77 270.361 142.96 272.081 141.98 273.771C142.072 271.836 142.384 269.917 142.91 268.051C143.411 266.178 144.08 264.354 144.91 262.601C145.716 260.849 146.683 259.175 147.8 257.601C148.883 255.989 150.182 254.532 151.66 253.271Z" fill="white"/>
<path d="M381 329.271C382.711 330.589 384.232 332.137 385.52 333.871C386.849 335.589 388.014 337.427 389 339.361C389.958 341.29 390.747 343.297 391.36 345.361C392.004 347.413 392.42 349.529 392.6 351.671C391.44 349.831 390.48 347.961 389.53 346.091L386.73 340.521L383.93 334.971C382.94 333.071 382 331.231 381 329.271Z" fill="white"/>
<path d="M377.48 333.973C379.027 335.111 380.41 336.457 381.59 337.973C382.789 339.476 383.837 341.094 384.72 342.803C385.614 344.496 386.354 346.266 386.93 348.093C387.542 349.911 387.944 351.793 388.13 353.703C387.07 352.083 386.18 350.423 385.3 348.773L382.71 343.853L380.12 338.953C379.24 337.363 378.34 335.703 377.48 333.973Z" fill="white"/>
<path d="M387.19 327.303C388.687 328.55 390.006 329.997 391.11 331.603C392.227 333.174 393.191 334.848 393.99 336.603C394.815 338.357 395.484 340.181 395.99 342.053C396.511 343.919 396.823 345.837 396.92 347.773C395.92 346.073 395.12 344.363 394.33 342.653L391.98 337.543L389.63 332.463C388.79 330.793 388 329.103 387.19 327.303Z" fill="white"/>
<path d="M299.12 357.98H312.4V361.36H304.09V363.91H311.8V367.18H304.09V370.36H312.64V373.99H299.12V357.98Z" fill="#407BFF"/>
<path d="M312.64 375.952H299.12C298.608 375.952 298.117 375.748 297.755 375.387C297.393 375.025 297.19 374.534 297.19 374.022V358.022C297.189 357.768 297.238 357.516 297.334 357.282C297.431 357.047 297.573 356.834 297.752 356.654C297.932 356.475 298.145 356.333 298.38 356.236C298.615 356.139 298.866 356.09 299.12 356.092H312.4C312.654 356.09 312.905 356.139 313.14 356.236C313.375 356.333 313.588 356.475 313.768 356.654C313.947 356.834 314.089 357.047 314.186 357.282C314.282 357.516 314.331 357.768 314.33 358.022V361.362C313.928 361.633 313.642 362.047 313.531 362.519C313.42 362.992 313.491 363.489 313.73 363.912V367.182C313.507 367.422 313.349 367.714 313.27 368.032C313.191 368.349 313.193 368.682 313.277 368.998C313.361 369.315 313.523 369.605 313.749 369.841C313.975 370.078 314.258 370.254 314.57 370.352V373.982C314.575 374.239 314.529 374.494 314.435 374.733C314.34 374.971 314.199 375.189 314.019 375.372C313.839 375.556 313.625 375.702 313.388 375.801C313.151 375.901 312.897 375.952 312.64 375.952ZM301.05 372.092H303.18C302.874 371.926 302.62 371.68 302.444 371.381C302.267 371.081 302.176 370.739 302.18 370.392V367.222C302.455 367.046 302.681 366.805 302.837 366.519C302.994 366.233 303.076 365.913 303.076 365.587C303.076 365.261 302.994 364.94 302.837 364.655C302.681 364.369 302.455 364.127 302.18 363.952V361.362C302.18 361.076 302.244 360.794 302.367 360.537C302.49 360.279 302.668 360.052 302.89 359.872H301.07L301.05 372.092Z" fill="#407BFF"/>
<path d="M315.38 374.021V358.021H323.64C324.823 357.979 326.005 358.111 327.15 358.411C327.964 358.655 328.67 359.17 329.15 359.871C329.505 360.38 329.752 360.957 329.875 361.566C329.998 362.175 329.994 362.802 329.863 363.409C329.733 364.016 329.479 364.59 329.117 365.094C328.755 365.599 328.293 366.023 327.76 366.341C327.218 366.646 326.63 366.862 326.02 366.981C326.476 367.116 326.91 367.314 327.31 367.571C327.606 367.818 327.871 368.1 328.1 368.411C328.362 368.724 328.596 369.058 328.8 369.411L331.2 374.061H325.6L322.95 369.161C322.737 368.691 322.431 368.269 322.05 367.921C321.695 367.674 321.272 367.545 320.84 367.551H320.4V374.061L315.38 374.021ZM320.38 364.481H322.47C322.912 364.443 323.35 364.37 323.78 364.261C324.105 364.2 324.394 364.017 324.59 363.751C324.819 363.435 324.926 363.047 324.893 362.658C324.86 362.269 324.689 361.905 324.41 361.631C323.854 361.298 323.205 361.155 322.56 361.221H320.38V364.481Z" fill="#407BFF"/>
<path d="M331.16 375.952H325.56C325.213 375.952 324.872 375.86 324.573 375.684C324.274 375.508 324.028 375.255 323.86 374.952L322.29 372.032V374.032C322.287 374.543 322.083 375.032 321.722 375.393C321.36 375.755 320.871 375.959 320.36 375.962H315.36C315.106 375.962 314.855 375.912 314.621 375.815C314.387 375.718 314.174 375.576 313.995 375.396C313.816 375.217 313.674 375.004 313.577 374.77C313.48 374.536 313.43 374.285 313.43 374.032V358.032C313.428 357.778 313.477 357.526 313.574 357.291C313.67 357.057 313.813 356.843 313.992 356.664C314.172 356.484 314.385 356.342 314.62 356.246C314.854 356.149 315.106 356.1 315.36 356.102H323.62C325.007 356.054 326.393 356.22 327.73 356.592C328.927 356.973 329.962 357.744 330.67 358.782C331.412 359.87 331.793 361.165 331.76 362.482C331.781 363.629 331.495 364.762 330.93 365.762C330.586 366.35 330.147 366.878 329.63 367.322C329.947 367.707 330.225 368.122 330.46 368.562L332.85 373.182C333.003 373.476 333.077 373.804 333.066 374.135C333.055 374.466 332.959 374.789 332.787 375.072C332.616 375.356 332.374 375.59 332.085 375.753C331.797 375.915 331.471 376.001 331.14 376.002L331.16 375.952ZM326.71 372.092H328L327 370.262C326.867 370.017 326.706 369.788 326.52 369.582C326.38 369.403 326.23 369.232 326.07 369.072C325.834 368.946 325.586 368.845 325.33 368.772C325.083 368.687 324.855 368.554 324.66 368.382L326.71 372.092ZM317.31 372.092H318.43V367.512C318.43 367.219 318.496 366.93 318.624 366.666C318.753 366.403 318.939 366.172 319.17 365.992C318.939 365.813 318.753 365.584 318.625 365.322C318.496 365.061 318.43 364.773 318.43 364.482V361.222C318.43 360.737 318.612 360.269 318.94 359.912H317.31V372.092ZM323.17 366.342C323.532 366.622 323.847 366.96 324.1 367.342C324.063 367.174 324.046 367.003 324.05 366.832C324.068 366.586 324.129 366.346 324.23 366.122H324.14C323.76 366.242 323.44 366.302 323.17 366.362V366.342ZM325.4 359.992L325.63 360.162C326.015 360.487 326.321 360.895 326.526 361.356C326.73 361.817 326.827 362.318 326.81 362.822C326.815 363.577 326.569 364.312 326.11 364.912C326.324 364.854 326.529 364.766 326.72 364.652C327.092 364.435 327.405 364.129 327.63 363.762C327.845 363.353 327.949 362.894 327.93 362.432C327.957 361.905 327.817 361.384 327.53 360.942C327.294 360.585 326.94 360.323 326.53 360.202C326.16 360.098 325.782 360.028 325.4 359.992V359.992Z" fill="#407BFF"/>
<path d="M332.81 374.022V358.022H341.07C342.256 357.979 343.442 358.11 344.59 358.412C345.405 358.653 346.111 359.169 346.59 359.872C346.946 360.381 347.192 360.957 347.315 361.566C347.438 362.175 347.434 362.802 347.304 363.409C347.173 364.016 346.919 364.59 346.557 365.094C346.195 365.599 345.733 366.023 345.2 366.342C344.658 366.646 344.07 366.862 343.46 366.982C343.916 367.116 344.35 367.315 344.75 367.572C345.05 367.818 345.319 368.1 345.55 368.412C345.806 368.726 346.037 369.061 346.24 369.412L348.64 374.062H343L340.35 369.162C340.141 368.689 339.834 368.267 339.45 367.922C339.097 367.671 338.673 367.541 338.24 367.552H337.8V374.062L332.81 374.022ZM337.81 364.482H339.9C340.342 364.444 340.78 364.371 341.21 364.262C341.535 364.2 341.824 364.018 342.02 363.752C342.228 363.487 342.338 363.158 342.33 362.822C342.343 362.599 342.306 362.377 342.221 362.171C342.136 361.964 342.006 361.78 341.84 361.632C341.284 361.299 340.635 361.155 339.99 361.222H337.81V364.482Z" fill="#407BFF"/>
<path d="M348.59 375.952H343C342.653 375.952 342.313 375.86 342.014 375.684C341.715 375.508 341.468 375.255 341.3 374.952L339.73 372.032V374.032C339.73 374.544 339.527 375.035 339.165 375.397C338.803 375.758 338.312 375.962 337.8 375.962H332.8C332.289 375.959 331.8 375.755 331.438 375.394C331.077 375.032 330.873 374.543 330.87 374.032V358.032C330.87 357.52 331.073 357.029 331.435 356.667C331.797 356.305 332.288 356.102 332.8 356.102H341.06C342.447 356.054 343.833 356.219 345.17 356.592C346.371 356.97 347.41 357.741 348.12 358.782C348.791 359.817 349.168 361.015 349.212 362.247C349.256 363.48 348.965 364.701 348.37 365.782C348.027 366.368 347.592 366.895 347.08 367.342C347.394 367.729 347.671 368.144 347.91 368.582L350.29 373.202C350.443 373.496 350.517 373.824 350.507 374.155C350.496 374.486 350.4 374.809 350.228 375.093C350.056 375.376 349.814 375.61 349.526 375.773C349.237 375.936 348.911 376.021 348.58 376.022L348.59 375.952ZM344.14 372.092H345.43L344.48 370.262C344.336 370.022 344.172 369.794 343.99 369.582C343.858 369.397 343.707 369.226 343.54 369.072V369.072C343.305 368.946 343.057 368.845 342.8 368.772C342.557 368.686 342.333 368.553 342.14 368.382L344.14 372.092ZM334.74 372.092H335.86V367.512C335.86 367.219 335.927 366.93 336.055 366.666C336.183 366.403 336.37 366.172 336.6 365.992C336.37 365.813 336.183 365.584 336.055 365.323C335.927 365.061 335.86 364.773 335.86 364.482V361.222C335.86 360.735 336.046 360.266 336.38 359.912H334.74V372.092ZM340.6 366.362C340.963 366.642 341.277 366.98 341.53 367.362C341.505 367.193 341.505 367.021 341.53 366.852C341.54 366.606 341.598 366.365 341.7 366.142H341.62C341.19 366.242 340.87 366.302 340.6 366.362ZM342.84 360.012L343.06 360.182C343.445 360.507 343.752 360.915 343.956 361.376C344.16 361.837 344.258 362.338 344.24 362.842C344.245 363.597 343.999 364.332 343.54 364.932C343.757 364.873 343.966 364.786 344.16 364.672C344.53 364.455 344.839 364.149 345.06 363.782C345.276 363.373 345.379 362.914 345.36 362.452C345.387 361.925 345.247 361.404 344.96 360.962C344.724 360.605 344.37 360.343 343.96 360.222C343.594 360.112 343.219 360.035 342.84 359.992V360.012Z" fill="#407BFF"/>
<path d="M349.17 366.011C349.06 364.894 349.199 363.767 349.576 362.71C349.953 361.653 350.56 360.693 351.353 359.898C352.145 359.104 353.104 358.495 354.16 358.115C355.216 357.735 356.343 357.594 357.46 357.701C358.58 357.629 359.703 357.783 360.762 358.152C361.822 358.521 362.797 359.099 363.63 359.851C364.375 360.654 364.951 361.6 365.322 362.631C365.693 363.662 365.852 364.757 365.79 365.851C365.852 367.441 365.529 369.022 364.85 370.461C364.232 371.643 363.279 372.617 362.11 373.261C360.734 373.972 359.198 374.317 357.65 374.261C356.108 374.312 354.574 374.018 353.16 373.401C351.945 372.799 350.941 371.844 350.28 370.661C349.5 369.238 349.117 367.632 349.17 366.011V366.011ZM354.17 366.011C354.061 367.243 354.378 368.475 355.07 369.501C355.389 369.833 355.772 370.097 356.195 370.277C356.619 370.457 357.075 370.55 357.535 370.55C357.995 370.55 358.451 370.457 358.874 370.277C359.298 370.097 359.681 369.833 360 369.501C360.698 368.389 361.007 367.077 360.88 365.771C360.974 364.593 360.648 363.421 359.96 362.461C359.646 362.122 359.26 361.857 358.832 361.684C358.403 361.511 357.941 361.435 357.48 361.461C357.026 361.444 356.574 361.531 356.158 361.715C355.742 361.898 355.373 362.174 355.08 362.521C354.365 363.545 354.029 364.786 354.13 366.031L354.17 366.011Z" fill="#407BFF"/>
<path d="M357.65 376.221C355.816 376.273 353.994 375.911 352.32 375.161C350.762 374.399 349.472 373.182 348.62 371.671C347.654 369.945 347.177 367.988 347.24 366.011C347.312 363.987 347.961 362.026 349.11 360.358C350.258 358.69 351.859 357.384 353.724 356.594C355.59 355.804 357.641 355.563 359.639 355.899C361.636 356.236 363.496 357.135 365 358.491C365.933 359.473 366.658 360.635 367.129 361.905C367.6 363.175 367.808 364.528 367.74 365.881C367.802 367.786 367.4 369.677 366.57 371.391C365.783 372.905 364.565 374.151 363.07 374.971C361.401 375.849 359.534 376.28 357.65 376.221V376.221ZM359 359.731C359.924 359.985 360.753 360.507 361.38 361.231C362.394 362.534 362.889 364.165 362.77 365.811C362.77 368.101 362.34 369.721 361.45 370.811C360.879 371.488 360.131 371.994 359.29 372.271C359.952 372.174 360.592 371.961 361.18 371.641C362.03 371.188 362.727 370.492 363.18 369.641C363.716 368.481 363.966 367.209 363.91 365.931C363.972 365.087 363.863 364.238 363.588 363.437C363.313 362.636 362.878 361.9 362.31 361.271C361.408 360.405 360.244 359.863 359 359.731V359.731ZM355.91 359.731C354.712 359.876 353.595 360.41 352.73 361.251C352.153 361.893 351.712 362.644 351.433 363.46C351.155 364.277 351.045 365.141 351.11 366.001C351.053 367.288 351.344 368.566 351.95 369.701C352.415 370.564 353.134 371.262 354.01 371.701C354.521 371.942 355.063 372.114 355.62 372.211C354.824 371.921 354.117 371.428 353.57 370.781C352.678 369.358 352.205 367.711 352.205 366.031C352.205 364.351 352.678 362.705 353.57 361.281C354.178 360.55 354.989 360.015 355.9 359.741L355.91 359.731ZM357.45 363.381C357.274 363.364 357.097 363.389 356.933 363.456C356.769 363.522 356.624 363.627 356.51 363.761C356.127 364.449 355.973 365.241 356.07 366.021C355.973 366.796 356.127 367.581 356.51 368.261C356.633 368.402 356.788 368.51 356.962 368.576C357.137 368.642 357.325 368.665 357.51 368.641C358.21 368.641 358.41 368.411 358.51 368.291C358.61 368.171 358.93 367.731 358.93 365.801C359.009 365.104 358.854 364.401 358.49 363.801C358.364 363.648 358.202 363.528 358.019 363.451C357.836 363.375 357.637 363.344 357.44 363.361L357.45 363.381Z" fill="#407BFF"/>
<path d="M368.53 374.021V358.021H376.79C377.973 357.979 379.155 358.111 380.3 358.411C381.114 358.655 381.82 359.17 382.3 359.871C382.655 360.38 382.902 360.957 383.025 361.566C383.148 362.175 383.144 362.802 383.013 363.409C382.883 364.016 382.629 364.59 382.267 365.094C381.905 365.599 381.443 366.023 380.91 366.341C380.367 366.646 379.78 366.862 379.17 366.981C379.626 367.116 380.06 367.314 380.46 367.571C380.756 367.818 381.021 368.1 381.25 368.411C381.512 368.724 381.746 369.058 381.95 369.411L384.35 374.061H378.75L376.1 369.161C375.887 368.691 375.581 368.269 375.2 367.921C374.845 367.674 374.422 367.545 373.99 367.551H373.55V374.061L368.53 374.021ZM373.53 364.481H375.62C376.062 364.443 376.5 364.37 376.93 364.261C377.254 364.2 377.544 364.017 377.74 363.751C377.969 363.435 378.076 363.047 378.043 362.658C378.01 362.269 377.839 361.905 377.56 361.631C377.004 361.298 376.355 361.155 375.71 361.221H373.53V364.481Z" fill="#407BFF"/>
<path d="M384.31 375.952H378.71C378.363 375.952 378.023 375.86 377.724 375.684C377.425 375.508 377.178 375.255 377.01 374.952L375.44 372.032V374.032C375.437 374.543 375.233 375.032 374.872 375.393C374.511 375.755 374.021 375.959 373.51 375.962H368.51C367.998 375.962 367.507 375.758 367.145 375.396C366.783 375.034 366.58 374.544 366.58 374.032V358.032C366.579 357.778 366.628 357.526 366.724 357.291C366.821 357.057 366.963 356.843 367.142 356.664C367.322 356.484 367.535 356.342 367.77 356.246C368.005 356.149 368.256 356.1 368.51 356.102H376.77C378.157 356.054 379.543 356.22 380.88 356.592C382.077 356.973 383.112 357.744 383.82 358.782C384.566 359.869 384.95 361.163 384.92 362.482C384.94 363.631 384.649 364.764 384.08 365.762C383.737 366.35 383.297 366.878 382.78 367.322C383.097 367.707 383.375 368.122 383.61 368.562L386 373.182C386.153 373.476 386.227 373.804 386.217 374.135C386.206 374.466 386.11 374.789 385.938 375.072C385.766 375.356 385.524 375.59 385.236 375.753C384.947 375.915 384.621 376.001 384.29 376.002L384.31 375.952ZM379.86 372.092H381.14L380.2 370.262C380.056 370.022 379.892 369.794 379.71 369.582C379.571 369.403 379.42 369.232 379.26 369.072V369.072C379.025 368.946 378.777 368.845 378.52 368.772C378.273 368.687 378.046 368.554 377.85 368.382L379.86 372.092ZM370.46 372.092H371.58V367.512C371.58 367.219 371.647 366.93 371.775 366.666C371.903 366.403 372.09 366.172 372.32 365.992C372.09 365.813 371.903 365.584 371.775 365.322C371.647 365.061 371.58 364.773 371.58 364.482V361.222C371.576 360.736 371.759 360.267 372.09 359.912H370.46V372.092ZM376.32 366.342C376.683 366.622 376.997 366.96 377.25 367.342C377.225 367.173 377.225 367.001 377.25 366.832C377.26 366.586 377.318 366.345 377.42 366.122H377.33C376.91 366.242 376.59 366.302 376.32 366.362V366.342ZM378.56 359.992L378.78 360.162C379.165 360.487 379.472 360.895 379.676 361.356C379.88 361.817 379.978 362.318 379.96 362.822C379.965 363.577 379.719 364.312 379.26 364.912C379.891 364.734 380.431 364.323 380.77 363.762C380.988 363.32 381.093 362.832 381.077 362.34C381.062 361.849 380.925 361.368 380.68 360.942C380.444 360.585 380.09 360.323 379.68 360.202C379.314 360.099 378.939 360.029 378.56 359.992V359.992Z" fill="#407BFF"/>
<path d="M299.12 357.98H312.4V361.36H304.09V363.91H311.8V367.18H304.09V370.36H312.64V373.99H299.12V357.98Z" fill="white"/>
<path d="M315.38 374.021V358.021H323.64C324.823 357.979 326.005 358.111 327.15 358.411C327.964 358.655 328.67 359.17 329.15 359.871C329.505 360.38 329.752 360.957 329.875 361.566C329.998 362.175 329.994 362.802 329.863 363.409C329.733 364.016 329.479 364.59 329.117 365.094C328.755 365.599 328.293 366.023 327.76 366.341C327.218 366.646 326.63 366.862 326.02 366.981C326.476 367.116 326.91 367.314 327.31 367.571C327.606 367.818 327.871 368.1 328.1 368.411C328.362 368.724 328.596 369.058 328.8 369.411L331.2 374.061H325.6L322.95 369.161C322.737 368.691 322.431 368.269 322.05 367.921C321.695 367.674 321.272 367.545 320.84 367.551H320.4V374.061L315.38 374.021ZM320.38 364.481H322.47C322.912 364.443 323.35 364.37 323.78 364.261C324.105 364.2 324.394 364.017 324.59 363.751C324.819 363.435 324.926 363.047 324.893 362.658C324.86 362.269 324.689 361.905 324.41 361.631C323.854 361.298 323.205 361.155 322.56 361.221H320.38V364.481Z" fill="white"/>
<path d="M332.81 374.022V358.022H341.07C342.256 357.979 343.442 358.11 344.59 358.412C345.405 358.653 346.111 359.169 346.59 359.872C346.946 360.381 347.192 360.957 347.315 361.566C347.438 362.175 347.434 362.802 347.304 363.409C347.173 364.016 346.919 364.59 346.557 365.094C346.195 365.599 345.733 366.023 345.2 366.342C344.658 366.646 344.07 366.862 343.46 366.982C343.916 367.116 344.35 367.315 344.75 367.572C345.05 367.818 345.319 368.1 345.55 368.412C345.806 368.726 346.037 369.061 346.24 369.412L348.64 374.062H343L340.35 369.162C340.141 368.689 339.834 368.267 339.45 367.922C339.097 367.671 338.673 367.541 338.24 367.552H337.8V374.062L332.81 374.022ZM337.81 364.482H339.9C340.342 364.444 340.78 364.371 341.21 364.262C341.535 364.2 341.824 364.018 342.02 363.752C342.228 363.487 342.338 363.158 342.33 362.822C342.343 362.599 342.306 362.377 342.221 362.171C342.136 361.964 342.006 361.78 341.84 361.632C341.284 361.299 340.635 361.155 339.99 361.222H337.81V364.482Z" fill="white"/>
<path d="M349.17 366.011C349.06 364.894 349.199 363.767 349.576 362.71C349.953 361.653 350.56 360.693 351.353 359.898C352.145 359.104 353.104 358.495 354.16 358.115C355.216 357.735 356.343 357.594 357.46 357.701C358.58 357.629 359.703 357.783 360.762 358.152C361.822 358.521 362.797 359.099 363.63 359.851C364.375 360.654 364.951 361.6 365.322 362.631C365.693 363.662 365.852 364.757 365.79 365.851C365.852 367.441 365.529 369.022 364.85 370.461C364.232 371.643 363.279 372.617 362.11 373.261C360.734 373.972 359.198 374.317 357.65 374.261C356.108 374.312 354.574 374.018 353.16 373.401C351.945 372.799 350.941 371.844 350.28 370.661C349.5 369.238 349.117 367.632 349.17 366.011V366.011ZM354.17 366.011C354.061 367.243 354.378 368.475 355.07 369.501C355.389 369.833 355.772 370.097 356.195 370.277C356.619 370.457 357.075 370.55 357.535 370.55C357.995 370.55 358.451 370.457 358.874 370.277C359.298 370.097 359.681 369.833 360 369.501C360.698 368.389 361.007 367.077 360.88 365.771C360.974 364.593 360.648 363.421 359.96 362.461C359.646 362.122 359.26 361.857 358.832 361.684C358.403 361.511 357.941 361.435 357.48 361.461C357.026 361.444 356.574 361.531 356.158 361.715C355.742 361.898 355.373 362.174 355.08 362.521C354.365 363.545 354.029 364.786 354.13 366.031L354.17 366.011Z" fill="white"/>
<path d="M368.53 374.021V358.021H376.79C377.973 357.979 379.155 358.111 380.3 358.411C381.114 358.655 381.82 359.17 382.3 359.871C382.655 360.38 382.902 360.957 383.025 361.566C383.148 362.175 383.144 362.802 383.013 363.409C382.883 364.016 382.629 364.59 382.267 365.094C381.905 365.599 381.443 366.023 380.91 366.341C380.367 366.646 379.78 366.862 379.17 366.981C379.626 367.116 380.06 367.314 380.46 367.571C380.756 367.818 381.021 368.1 381.25 368.411C381.512 368.724 381.746 369.058 381.95 369.411L384.35 374.061H378.75L376.1 369.161C375.887 368.691 375.581 368.269 375.2 367.921C374.845 367.674 374.422 367.545 373.99 367.551H373.55V374.061L368.53 374.021ZM373.53 364.481H375.62C376.062 364.443 376.5 364.37 376.93 364.261C377.254 364.2 377.544 364.017 377.74 363.751C377.969 363.435 378.076 363.047 378.043 362.658C378.01 362.269 377.839 361.905 377.56 361.631C377.004 361.298 376.355 361.155 375.71 361.221H373.53V364.481Z" fill="white"/>
<path d="M426.5 112.642C422.299 111.306 417.908 110.661 413.5 110.732C409.22 110.756 404.982 111.574 401 113.142C399.327 113.799 397.755 114.687 396.33 115.782C396.19 115.902 396.03 116.012 395.92 116.122C395.81 116.232 395.7 116.312 395.52 116.502C395.34 116.692 394.87 117.172 394.52 117.502C393.881 118.226 393.29 118.991 392.75 119.792C390.516 123.077 389.096 126.848 388.61 130.792C388.372 132.659 388.396 134.551 388.68 136.412C388.814 137.287 389.018 138.149 389.29 138.992C389.562 139.835 389.896 140.657 390.29 141.452C391.387 143.506 392.626 145.481 394 147.362C395.53 149.542 397.3 151.922 399 154.832C400.978 158.054 402.388 161.592 403.17 165.292C403.568 167.373 403.716 169.495 403.61 171.612C403.491 173.688 403.125 175.742 402.52 177.732C401.353 181.543 399.413 185.073 396.82 188.102C395.541 189.589 394.118 190.946 392.57 192.152C391.076 193.327 389.476 194.362 387.79 195.242C384.537 196.92 381.042 198.077 377.43 198.672C374.051 199.231 370.617 199.392 367.2 199.152C363.942 198.92 360.712 198.391 357.55 197.572C354.58 196.801 351.658 195.856 348.8 194.742C343.24 192.612 338.2 190.172 333.39 188.102C328.935 186.056 324.275 184.488 319.49 183.422C317.321 182.981 315.113 182.76 312.9 182.762C310.655 182.769 308.416 182.983 306.21 183.402C301.56 184.351 297.064 185.939 292.85 188.122C284.11 192.532 276.03 199.252 267.67 206.292C266.158 207.57 264.201 208.198 262.227 208.039C260.253 207.88 258.422 206.947 257.133 205.444C255.845 203.94 255.203 201.987 255.349 200.012C255.494 198.038 256.415 196.2 257.91 194.902C266.16 187.712 274.85 180.002 285.63 174.242C291.111 171.27 296.981 169.082 303.07 167.742C306.238 167.072 309.463 166.7 312.7 166.632C315.974 166.559 319.248 166.817 322.47 167.402C328.428 168.567 334.245 170.368 339.82 172.772C345.12 174.942 350.01 177.172 354.73 178.872C356.994 179.705 359.305 180.406 361.65 180.972C363.809 181.491 366.012 181.805 368.23 181.912C372.129 182.23 376.041 181.473 379.54 179.722C380.275 179.312 380.971 178.837 381.62 178.302C382.224 177.805 382.78 177.253 383.28 176.652C384.239 175.474 384.947 174.113 385.36 172.652C385.546 172.001 385.647 171.328 385.66 170.652C385.676 170.026 385.616 169.402 385.48 168.792C385.046 167.138 384.343 165.567 383.4 164.142C382.29 162.342 380.77 160.322 379.1 158.052C377.173 155.514 375.431 152.84 373.89 150.052C373.018 148.416 372.269 146.718 371.65 144.972C371.045 143.217 370.577 141.418 370.25 139.592C369.617 136.038 369.479 132.413 369.84 128.822C370.538 121.821 372.904 115.089 376.74 109.192C377.705 107.699 378.764 106.269 379.91 104.912C380.5 104.232 381.1 103.562 381.73 102.912C382.02 102.602 382.44 102.212 382.81 101.862C383.18 101.512 383.57 101.192 383.95 100.862C386.807 98.523 389.986 96.6099 393.39 95.1815C399.588 92.5874 406.214 91.1699 412.93 91.0015C419.491 90.7926 426.042 91.647 432.33 93.5315C434.713 94.4115 436.672 96.1654 437.809 98.4372C438.946 100.709 439.176 103.328 438.451 105.763C437.727 108.198 436.103 110.266 433.91 111.548C431.716 112.829 429.117 113.227 426.64 112.662L426.5 112.642Z" fill="#263238"/>
<path d="M426.261 113.451C420.887 111.63 415.192 110.949 409.541 111.451C406.814 111.699 404.128 112.277 401.541 113.171C399.399 113.902 397.397 114.991 395.62 116.391L395.05 116.881C393.166 118.612 390.671 119.523 388.115 119.414C385.559 119.305 383.151 118.186 381.421 116.301C379.69 114.417 378.779 111.922 378.888 109.366C378.996 106.81 380.116 104.402 382 102.671C385.503 99.2449 389.636 96.5283 394.171 94.6713C398.252 92.9699 402.528 91.7775 406.9 91.1213C415.481 89.8609 424.23 90.4197 432.58 92.7613C435.352 93.5198 437.709 95.3482 439.132 97.8443C440.555 100.34 440.929 103.3 440.171 106.071C439.412 108.843 437.584 111.199 435.087 112.623C432.591 114.046 429.632 114.42 426.86 113.661L426.33 113.501L426.261 113.451Z" fill="#407BFF"/>
<path d="M239.8 237.212L243.51 242.992C239.78 244.942 235.88 244.652 231.9 244.652C230.21 236.832 239.8 237.212 239.8 237.212Z" fill="#263238"/>
<path d="M217.19 206.361C221.92 219.971 239.46 238.021 239.46 238.021C239.46 238.021 232.06 239.501 234.07 244.611H244.4L266.64 240.421C267.382 240.249 268.031 239.8 268.454 239.167C268.878 238.534 269.044 237.763 268.92 237.011L260.71 209.471L217.19 206.361Z" fill="#407BFF"/>
<path d="M303.46 214.152L305.46 222.262C309.38 220.712 312.69 219.652 314.39 216.012C312.42 210.952 303.46 214.152 303.46 214.152Z" fill="#263238"/>
<path d="M285.9 172.541C292.9 185.081 307.66 215.661 307.66 215.661C307.66 215.661 315.24 215.981 314.23 221.311L284.84 228.571C284.185 228.798 283.473 228.803 282.815 228.584C282.157 228.365 281.589 227.935 281.2 227.361L260.2 209.581C271.66 202.581 285 184.211 285.9 172.541Z" fill="#407BFF"/>
<path opacity="0.1" d="M272.28 198.852C268.838 203.018 264.794 206.648 260.28 209.622L266.28 214.512C272.75 208.722 274.59 202.522 272.28 198.852Z" fill="black"/>
<path d="M264.8 136.132C272.96 137.522 306.85 132.922 309.37 132.802C309.64 130.932 310.5 126.302 312.53 127.122C314.56 127.942 315.6 131.442 315.19 133.122C320 132.262 326.32 142.122 319.13 150.122C308.6 161.942 270.13 163.752 270.13 163.752C270.13 163.752 249.26 138.092 264.8 136.132Z" fill="#407BFF"/>
<path opacity="0.1" d="M267.341 151.862C265.714 151.682 264.069 151.863 262.521 152.392C264.753 156.377 267.301 160.175 270.141 163.752C270.141 163.752 277.901 163.382 287.401 161.922C282.171 158.182 273.881 152.912 267.341 151.862Z" fill="black"/>
<path d="M315.19 133.092C320.05 131.092 323.45 130.092 324.57 131.762C325.69 133.432 324.19 136.942 319.49 137.852C315.18 135.152 315.19 133.092 315.19 133.092Z" fill="#407BFF"/>
<path d="M318.35 137.252C323.47 137.082 326.9 137.382 327.35 139.252C327.8 141.122 325.22 143.842 320.64 143.052C317.63 139.132 318.35 137.252 318.35 137.252Z" fill="#407BFF"/>
<path d="M321.58 142.482C324.87 144.012 326.89 145.352 326.29 146.962C325.69 148.572 322.84 149.812 320.29 147.712C320.26 143.692 321.58 142.482 321.58 142.482Z" fill="#407BFF"/>
<path d="M202.15 161.702C198.39 169.072 174.43 193.472 172.82 195.432C171.16 194.522 166.94 192.432 166.39 194.562C165.84 196.692 168.01 199.612 169.57 200.262C166.01 203.602 170.1 214.552 180.87 213.612C196.64 212.232 221.09 182.502 221.09 182.502C221.09 182.502 213 150.412 202.15 161.702Z" fill="#407BFF"/>
<path opacity="0.1" d="M213.23 173.142C214.066 171.735 215.195 170.524 216.54 169.592C218.403 173.765 219.925 178.083 221.09 182.502C221.09 182.502 216.16 188.502 209.3 195.232C209.43 188.812 210.16 179.012 213.23 173.142Z" fill="black"/>
<path d="M169.57 200.262C165.04 202.942 162.23 205.092 162.9 206.982C163.57 208.872 167.28 209.782 170.82 206.562C171.23 201.492 169.57 200.262 169.57 200.262Z" fill="#407BFF"/>
<path d="M171 205.291C167.8 209.291 166 212.211 167.26 213.701C168.52 215.191 172.2 214.701 174.31 210.581C173 205.831 171 205.291 171 205.291Z" fill="#407BFF"/>
<path d="M173.28 211.001C172.53 214.551 172.4 217.001 174.06 217.461C175.72 217.921 178.4 216.401 178.22 213.121C175 210.671 173.28 211.001 173.28 211.001Z" fill="#407BFF"/>
<path opacity="0.1" d="M260.73 209.572V209.512L247.43 208.512C247.16 214.242 253.83 217.872 262.79 216.332L260.73 209.572Z" fill="black"/>
<path d="M263.19 140.732L235.75 152.482L208.32 164.232C208.32 164.232 211.24 199.692 220.24 211.842C229.24 223.992 246.62 220.252 261.97 213.672C277.32 207.092 291.97 197.102 289.43 182.202C286.89 167.302 263.19 140.732 263.19 140.732Z" fill="#407BFF"/>
<path opacity="0.2" d="M251.25 147.362L236.31 153.762L221.38 160.162C221.6 157.252 215.5 184.322 225.9 198.752C232.68 208.152 245.34 205.572 256.47 200.802C267.6 196.032 278.19 188.652 276.06 177.262C272.8 159.792 249 145.542 251.25 147.362Z" fill="white"/>
<path opacity="0.2" d="M246.5 151.582L236.5 155.842L226.55 160.112C226.62 158.012 223.17 177.482 230.55 188.202C235.38 195.202 243.89 193.642 251.31 190.462C258.73 187.282 265.73 182.192 264 173.872C261.41 161.122 244.92 150.192 246.5 151.582Z" fill="white"/>
<path opacity="0.2" d="M176.529 209.707C178.42 208.948 179.158 206.351 178.177 203.906C177.196 201.461 174.868 200.094 172.976 200.853C171.085 201.611 170.347 204.209 171.328 206.654C172.309 209.099 174.637 210.465 176.529 209.707Z" fill="white"/>
<path opacity="0.2" d="M319.48 142.202C319.67 144.832 318.18 147.082 316.15 147.202C314.12 147.322 312.31 145.342 312.15 142.722C311.99 140.102 313.45 137.842 315.48 137.722C317.51 137.602 319.29 139.582 319.48 142.202Z" fill="white"/>
<path d="M175.69 76.3615C135.82 48.1415 74.5603 65.4515 69.7503 76.1115C64.6403 87.4615 120.12 118.031 133.75 147.571C153.65 110.601 175.69 76.3615 175.69 76.3615Z" fill="#263238"/>
<path opacity="0.5" d="M161 87.9313C129.44 65.9313 84.9405 75.8313 82.0605 83.3313C78.9905 91.3313 122.34 115.681 134.45 137.581C146.8 111.731 161 87.9313 161 87.9313Z" fill="#407BFF"/>
<path d="M164.93 82.5918C155.99 83.1918 148.42 86.1918 141.75 93.2318C144.756 92.2682 147.96 92.098 151.05 92.7375C154.141 93.377 157.014 94.8046 159.39 96.8818L164.93 82.5918Z" fill="#263238"/>
<path d="M223.4 55.9119C242.56 -4.54807 310.8 -4.78807 324.4 4.36193C334.73 11.3619 290.74 39.2919 302.53 79.6119C262.85 66.0319 223.4 55.9119 223.4 55.9119Z" fill="#263238"/>
<path opacity="0.5" d="M241.43 54.6027C257.43 19.6027 294.75 5.60267 312.18 8.73267C328.66 11.6727 279.42 50.1027 289.48 83.9327C265.7 67.9327 241.43 54.6027 241.43 54.6027Z" fill="#407BFF"/>
<path d="M240.34 49.2012C243.424 47.5309 246.809 46.488 250.298 46.1327C253.788 45.7774 257.313 46.1168 260.67 47.1312C258.203 47.6842 255.921 48.8663 254.046 50.5625C252.171 52.2588 250.767 54.4115 249.97 56.8112L240.34 49.2012Z" fill="#263238"/>
<path d="M241.17 46.3628C243.213 44.4535 245.612 42.9669 248.231 41.9886C250.85 41.0104 253.637 40.5598 256.43 40.6628C254.639 41.5883 253.117 42.9615 252.013 44.6489C250.909 46.3363 250.261 48.2806 250.13 50.2928L241.17 46.3628Z" fill="#263238"/>
<path d="M314.33 82.7014C324.41 106.221 288.05 134.701 237.43 156.391C186.81 178.081 141.11 184.761 131 161.231C120.89 137.701 145.24 81.1214 195.86 59.4314C246.48 37.7414 304.25 59.1714 314.33 82.7014Z" fill="#407BFF"/>
<path opacity="0.1" d="M294.35 84.9416C303.69 106.752 275.21 131.752 234.35 149.252C193.49 166.752 155.76 170.122 146.42 148.302C137.08 126.482 159.66 87.7316 200.5 70.2416C241.34 52.7516 285 63.1216 294.35 84.9416Z" fill="black"/>
<path d="M212.17 116.732C211.29 114.672 213.98 112.312 217.83 110.652C221.68 108.992 225.26 108.652 226.14 110.742C227.02 112.832 225.67 118.282 221.81 119.942C217.95 121.602 213.05 118.792 212.17 116.732Z" fill="#263238"/>
<path opacity="0.3" d="M220.34 135.102C219.75 133.702 222.58 131.672 226.44 130.022C230.3 128.372 233.72 127.722 234.31 129.112C234.9 130.502 232.98 134.641 229.13 136.291C225.28 137.941 220.94 136.492 220.34 135.102Z" fill="black"/>
<path opacity="0.4" d="M148.91 118.132C154.42 102.352 167.01 90.6422 179.85 87.7122C201.5 82.7722 207.85 109.882 197.39 128.572C185.71 149.492 159.91 146.302 157.39 136.732C153.76 143.102 139 146.432 148.91 118.132Z" fill="white"/>
<path d="M197.4 100.361C197.4 100.361 195.93 119.571 185.79 126.361C175.65 133.151 160.67 124.831 160.67 124.831C160.67 124.831 162.14 105.631 172.28 98.831C182.42 92.031 197.4 100.361 197.4 100.361Z" fill="white"/>
<path d="M160.67 124.731C160.579 120.027 161.254 115.339 162.67 110.851C163.366 108.555 164.326 106.347 165.53 104.271C166.746 102.119 168.342 100.205 170.24 98.6212C172.197 97.0255 174.509 95.9245 176.98 95.4112C179.381 94.9012 181.855 94.8334 184.28 95.2112C188.976 95.901 193.454 97.6446 197.38 100.311C193.115 98.6744 188.635 97.664 184.08 97.3112C181.896 97.165 179.701 97.3675 177.58 97.9112C175.509 98.39 173.582 99.3568 171.96 100.731C170.28 102.098 168.849 103.746 167.73 105.601L167.27 106.291L166.86 107.021C166.6 107.511 166.31 108.021 166.06 108.491C165.59 109.491 165.06 110.491 164.67 111.561C162.965 115.829 161.627 120.235 160.67 124.731V124.731Z" fill="#263238"/>
<path d="M224.45 88.7214C224.45 88.7214 239.37 100.911 251.24 98.2214C263.11 95.5314 267.46 78.9814 267.46 78.9814C267.46 78.9814 252.55 66.7914 240.67 69.4814C228.79 72.1714 224.45 88.7214 224.45 88.7214Z" fill="white"/>
<path d="M267.46 78.9818C263.544 76.5832 259.433 74.5192 255.17 72.8118C254.17 72.3918 253.04 72.0718 251.98 71.7118C251.45 71.5418 250.9 71.4218 250.36 71.2718L249.56 71.0618L248.74 70.9218C246.626 70.4557 244.448 70.3542 242.3 70.6218C240.187 70.8564 238.159 71.5862 236.38 72.7518C234.524 73.9086 232.866 75.3572 231.47 77.0418C228.581 80.5741 226.223 84.5089 224.47 88.7218C225.243 84.0402 227.069 79.5952 229.81 75.7218C231.211 73.7059 232.966 71.961 234.99 70.5718C237.075 69.1339 239.477 68.2213 241.99 67.9118C244.443 67.6311 246.927 67.7971 249.32 68.4018C251.634 68.9626 253.875 69.788 256 70.8618C260.235 72.9289 264.106 75.6714 267.46 78.9818V78.9818Z" fill="#263238"/>
<path d="M187.868 122.891C193.68 121.478 197.245 115.62 195.831 109.809C194.418 103.997 188.561 100.431 182.749 101.845C176.937 103.258 173.371 109.116 174.785 114.928C176.199 120.739 182.056 124.305 187.868 122.891Z" fill="#263238"/>
<path d="M176.61 113.011C176.968 113.839 177.562 114.541 178.319 115.031C179.076 115.521 179.961 115.775 180.862 115.762C181.763 115.749 182.64 115.469 183.383 114.958C184.125 114.447 184.699 113.727 185.033 112.89C185.366 112.053 185.444 111.135 185.257 110.254C185.069 109.372 184.624 108.566 183.979 107.937C183.333 107.308 182.516 106.884 181.63 106.719C180.744 106.555 179.829 106.656 179 107.011C178.449 107.247 177.949 107.59 177.531 108.02C177.112 108.45 176.782 108.958 176.56 109.515C176.338 110.073 176.228 110.668 176.237 111.268C176.245 111.868 176.372 112.46 176.61 113.011V113.011Z" fill="white"/>
<path d="M251.156 92.4886C253.378 86.9355 250.678 80.6324 245.125 78.4102C239.572 76.188 233.269 78.8882 231.047 84.4413C228.824 89.9944 231.525 96.2975 237.078 98.5198C242.631 100.742 248.934 98.0417 251.156 92.4886Z" fill="#263238"/>
<path d="M232.4 89.101C232.758 89.9284 233.352 90.6313 234.109 91.1209C234.866 91.6105 235.75 91.8649 236.652 91.852C237.553 91.839 238.43 91.5592 239.172 91.0481C239.915 90.5369 240.489 89.8172 240.822 88.9799C241.156 88.1426 241.234 87.2252 241.046 86.3436C240.859 85.462 240.414 84.6558 239.769 84.0268C239.123 83.3977 238.306 82.974 237.42 82.8093C236.534 82.6445 235.619 82.746 234.79 83.101C234.238 83.3362 233.737 83.6785 233.318 84.1079C232.898 84.5374 232.568 85.0457 232.346 85.6034C232.124 86.1612 232.014 86.7574 232.023 87.3576C232.033 87.9579 232.161 88.5504 232.4 89.101V89.101Z" fill="white"/>
<path d="M186.9 113.032C187.044 113.362 187.282 113.641 187.584 113.836C187.887 114.03 188.24 114.13 188.6 114.124C188.959 114.118 189.309 114.005 189.604 113.801C189.9 113.596 190.128 113.309 190.261 112.974C190.393 112.64 190.423 112.274 190.348 111.922C190.272 111.571 190.094 111.25 189.837 110.999C189.579 110.749 189.253 110.58 188.899 110.515C188.545 110.449 188.18 110.49 187.85 110.632C187.407 110.825 187.058 111.186 186.88 111.636C186.702 112.086 186.709 112.588 186.9 113.032V113.032Z" fill="white"/>
<path d="M242.69 89.1211C242.829 89.4524 243.062 89.7352 243.36 89.9343C243.659 90.1333 244.01 90.2395 244.369 90.2396C244.728 90.2397 245.079 90.1337 245.378 89.9348C245.677 89.736 245.91 89.4532 246.049 89.1221C246.187 88.791 246.225 88.4263 246.156 88.0739C246.088 87.7215 245.917 87.3971 245.665 87.1415C245.413 86.886 245.091 86.7107 244.74 86.6377C244.388 86.5647 244.023 86.5972 243.69 86.7311C243.466 86.82 243.261 86.9529 243.089 87.1219C242.917 87.291 242.78 87.4928 242.687 87.7155C242.593 87.9382 242.546 88.1773 242.546 88.4187C242.547 88.6601 242.596 88.8989 242.69 89.1211V89.1211Z" fill="white"/>
<path d="M236.88 123.231C236.33 123.581 235.78 123.941 235.21 124.231C234.64 124.521 234.01 124.801 233.38 125.031C232.094 125.481 230.743 125.721 229.38 125.741C227.979 125.722 226.595 125.422 225.31 124.861C223.989 124.281 222.816 123.409 221.88 122.311L223.51 121.611C223.655 123.049 223.478 124.501 222.99 125.861C222.511 127.177 221.773 128.384 220.82 129.411C219.869 130.385 218.764 131.196 217.55 131.811C216.951 132.099 216.336 132.356 215.71 132.581C215.07 132.771 214.43 132.931 213.8 133.081C214.37 132.741 214.94 132.431 215.5 132.081C216.06 131.731 216.58 131.411 217.08 131.011C218.07 130.275 218.961 129.415 219.73 128.451C220.451 127.497 221 126.424 221.35 125.281C221.524 124.717 221.644 124.138 221.71 123.551C221.775 122.993 221.775 122.429 221.71 121.871C221.687 121.636 221.755 121.401 221.9 121.215C222.046 121.029 222.257 120.906 222.49 120.871C222.649 120.851 222.811 120.871 222.959 120.931C223.108 120.99 223.239 121.087 223.34 121.211C223.704 121.64 224.109 122.032 224.55 122.381C225.025 122.727 225.527 123.035 226.05 123.301C227.122 123.827 228.275 124.165 229.46 124.301C230.692 124.412 231.933 124.358 233.15 124.141C233.78 124.061 234.39 123.861 235.02 123.741C235.65 123.621 236.25 123.411 236.88 123.231Z" fill="#263238"/>
<path d="M222.61 122.711C222.432 122.71 222.259 122.657 222.11 122.559C221.961 122.462 221.843 122.324 221.77 122.161L219 115.651C218.907 115.43 218.905 115.18 218.995 114.957C219.085 114.734 219.259 114.556 219.48 114.461C219.59 114.412 219.709 114.385 219.83 114.383C219.95 114.381 220.07 114.402 220.182 114.447C220.294 114.492 220.396 114.559 220.481 114.644C220.567 114.728 220.634 114.83 220.68 114.941L223.47 121.441C223.53 121.58 223.554 121.731 223.541 121.882C223.527 122.032 223.477 122.177 223.393 122.303C223.31 122.429 223.197 122.533 223.063 122.604C222.93 122.675 222.781 122.712 222.63 122.711H222.61Z" fill="#263238"/>
<path d="M131.72 136.592C123.61 140.402 117.72 148.502 116.25 158.092C123.41 149.352 131.76 151.922 131.76 151.922L131.72 136.592Z" fill="#407BFF"/>
<path d="M132.55 160.223C131.135 163.444 130.527 166.963 130.779 170.472C131.032 173.982 132.138 177.377 134 180.363C133.92 171.763 140.06 169.203 140.06 169.203L132.55 160.223Z" fill="#407BFF"/>
<path d="M132.08 147.021C123.91 153.121 119.23 163.491 119.72 174.531C125.72 163.141 135.62 164.111 135.62 164.111L132.08 147.021Z" fill="#407BFF"/>
<path d="M296 66.2024C304.35 62.9624 314.25 64.3225 322.24 69.8325C310.97 68.9925 307.07 76.8325 307.07 76.8325L296 66.2024Z" fill="#407BFF"/>
<path d="M309.86 82.7025C316.59 81.6125 323.93 82.4625 328.43 86.8425C322.906 86.8392 317.558 88.7871 313.33 92.3425L309.86 82.7025Z" fill="#407BFF"/>
<path d="M307.61 81.7227C313.72 84.7227 319.18 89.7227 320.28 95.9127C315.794 92.684 310.311 91.1466 304.8 91.5727L307.61 81.7227Z" fill="#407BFF"/>
<path d="M303.32 73.6612C313.37 71.9512 324.1 75.7212 331.76 83.6612C319.38 80.1512 313.25 87.9812 313.25 87.9812L303.32 73.6612Z" fill="#407BFF"/>
<path d="M190 63.892C189.62 58.232 192.35 53.362 199.11 48.332C197.69 56.412 203.54 58.432 203.54 58.432L190 63.892Z" fill="#407BFF"/>
<path d="M197.38 60.7413C198.72 54.1613 205.46 47.7413 215.27 43.6113C208.27 51.1513 213.91 55.8313 213.91 55.8313L197.38 60.7413Z" fill="#407BFF"/>
<path d="M141.59 178.911C141.501 178.908 141.415 178.88 141.34 178.831C141.291 178.798 141.248 178.755 141.215 178.705C141.182 178.656 141.16 178.6 141.149 178.541C141.137 178.482 141.138 178.422 141.15 178.364C141.163 178.305 141.187 178.25 141.22 178.201C167.73 138.581 215.97 122.951 216.45 122.801C216.567 122.766 216.693 122.778 216.801 122.834C216.909 122.89 216.992 122.986 217.03 123.101C217.065 123.216 217.053 123.341 216.997 123.447C216.941 123.554 216.845 123.634 216.73 123.671C216.25 123.821 168.31 139.361 141.97 178.671C141.935 178.742 141.881 178.802 141.814 178.845C141.747 178.887 141.67 178.91 141.59 178.911V178.911Z" fill="#263238"/>
<path d="M148.89 203.872C148.841 203.882 148.79 203.882 148.74 203.872C148.625 203.834 148.53 203.751 148.476 203.642C148.421 203.533 148.412 203.408 148.45 203.292C166.75 149.842 214.65 126.682 215.13 126.462C215.238 126.411 215.361 126.404 215.474 126.443C215.586 126.483 215.679 126.565 215.73 126.672C215.757 126.726 215.774 126.785 215.778 126.845C215.782 126.905 215.774 126.965 215.754 127.022C215.735 127.079 215.704 127.131 215.664 127.176C215.624 127.22 215.575 127.257 215.52 127.282C215.04 127.512 167.52 150.512 149.32 203.592C149.284 203.676 149.223 203.746 149.147 203.796C149.071 203.846 148.981 203.872 148.89 203.872V203.872Z" fill="#263238"/>
<path d="M227.801 118.891C227.721 118.893 227.642 118.872 227.573 118.832C227.504 118.791 227.448 118.732 227.411 118.661C227.379 118.611 227.357 118.554 227.348 118.495C227.339 118.435 227.342 118.375 227.357 118.317C227.372 118.259 227.398 118.204 227.435 118.157C227.472 118.11 227.518 118.07 227.571 118.041C228.011 117.781 272.081 92.7113 319.221 99.8513C319.28 99.8586 319.336 99.8777 319.388 99.9076C319.439 99.9375 319.484 99.9774 319.52 100.025C319.555 100.073 319.58 100.127 319.594 100.185C319.608 100.243 319.61 100.303 319.601 100.361C319.579 100.48 319.513 100.585 319.417 100.658C319.32 100.73 319.2 100.763 319.081 100.751C272.271 93.6513 228.471 118.571 228.081 118.831C227.996 118.881 227.898 118.902 227.801 118.891V118.891Z" fill="#263238"/>
<path d="M322.38 122.252C322.334 122.263 322.286 122.263 322.24 122.252C266.44 104.252 231.83 120.252 231.48 120.432C231.371 120.484 231.246 120.491 231.133 120.45C231.02 120.41 230.927 120.326 230.875 120.217C230.823 120.109 230.817 119.984 230.857 119.87C230.898 119.757 230.981 119.664 231.09 119.612C231.43 119.442 266.34 103.252 322.52 121.382C322.634 121.423 322.727 121.506 322.781 121.614C322.835 121.722 322.845 121.847 322.81 121.962C322.777 122.049 322.718 122.124 322.641 122.176C322.564 122.228 322.473 122.254 322.38 122.252V122.252Z" fill="#263238"/>
<path d="M219.154 366.62C227.774 357.311 227.215 342.778 217.907 334.159C208.599 325.54 194.066 326.098 185.447 335.406C176.827 344.714 177.386 359.247 186.694 367.867C196.002 376.486 210.535 375.928 219.154 366.62Z" fill="#407BFF"/>
<path d="M266.75 374.982C255.37 374.982 251.35 370.672 247.47 366.512C246.185 365.059 244.777 363.72 243.26 362.512C237.44 358.072 228.26 356.042 223.63 358.172C223.414 358.208 223.192 358.172 222.999 358.069C222.805 357.967 222.65 357.804 222.558 357.605C222.466 357.406 222.442 357.183 222.489 356.969C222.537 356.755 222.653 356.563 222.82 356.422C228.12 353.992 238.01 356.082 244.43 360.972C246.035 362.259 247.527 363.681 248.89 365.222C252.65 369.272 256.21 373.092 266.75 373.092C269.322 373.16 271.865 372.53 274.108 371.269C276.351 370.009 278.211 368.164 279.49 365.932C280.546 364.18 281.117 362.178 281.144 360.132C281.17 358.086 280.651 356.07 279.64 354.292C277.25 350.442 272.33 348.482 265.77 348.792C265.624 348.838 265.469 348.85 265.318 348.827C265.166 348.804 265.022 348.747 264.896 348.659C264.77 348.572 264.666 348.456 264.592 348.322C264.518 348.188 264.475 348.038 264.468 347.885C264.461 347.732 264.489 347.579 264.551 347.439C264.612 347.298 264.705 347.174 264.822 347.075C264.939 346.976 265.077 346.905 265.226 346.868C265.375 346.831 265.53 346.829 265.68 346.862C272.97 346.532 278.51 348.802 281.28 353.272C282.471 355.344 283.089 357.695 283.071 360.085C283.053 362.475 282.401 364.817 281.18 366.872C279.73 369.4 277.624 371.488 275.083 372.916C272.543 374.344 269.663 375.057 266.75 374.982V374.982Z" fill="#407BFF"/>
<path d="M212 368.561C199.897 368.438 188.232 364.014 179.09 356.081C178.972 355.897 178.917 355.68 178.934 355.462C178.95 355.244 179.038 355.038 179.183 354.875C179.328 354.711 179.523 354.6 179.737 354.558C179.952 354.516 180.174 354.545 180.37 354.641C188.37 361.781 202.65 368.541 218.58 366.141C218.721 366.079 218.873 366.051 219.027 366.058C219.18 366.065 219.329 366.107 219.464 366.181C219.598 366.255 219.714 366.359 219.801 366.485C219.889 366.611 219.947 366.755 219.97 366.907C219.993 367.058 219.98 367.213 219.934 367.36C219.888 367.506 219.808 367.639 219.702 367.75C219.596 367.86 219.465 367.945 219.321 367.997C219.177 368.05 219.023 368.068 218.87 368.051C216.596 368.391 214.3 368.562 212 368.561V368.561Z" fill="#407BFF"/>
<path d="M209.48 371.421C197.69 371.421 187.62 366.781 178.83 357.321C178.659 357.136 178.563 356.893 178.563 356.641C178.563 356.389 178.659 356.146 178.83 355.961C179.016 355.787 179.261 355.689 179.515 355.689C179.77 355.689 180.015 355.787 180.2 355.961C189.93 366.441 201.3 370.731 214.95 369.111C215.093 369.051 215.247 369.025 215.402 369.035C215.556 369.045 215.706 369.091 215.84 369.169C215.973 369.247 216.087 369.354 216.172 369.484C216.257 369.613 216.311 369.76 216.33 369.914C216.348 370.067 216.331 370.223 216.279 370.369C216.227 370.514 216.142 370.646 216.031 370.753C215.919 370.861 215.784 370.941 215.637 370.987C215.489 371.034 215.333 371.045 215.18 371.021C213.29 371.269 211.387 371.403 209.48 371.421V371.421Z" fill="#407BFF"/>
<path d="M192.06 372.582C191.811 372.583 191.571 372.491 191.386 372.325C191.201 372.159 191.085 371.929 191.06 371.682C190.22 360.402 194.11 342.442 204.67 327.752C204.84 327.613 205.051 327.535 205.27 327.528C205.489 327.521 205.704 327.586 205.882 327.713C206.06 327.84 206.192 328.023 206.257 328.232C206.322 328.441 206.316 328.666 206.24 328.872C196 343.182 192.21 360.612 193 371.542C193.002 371.789 192.912 372.028 192.747 372.213C192.583 372.397 192.356 372.514 192.11 372.542L192.06 372.582Z" fill="#407BFF"/>
<path d="M182.47 363.631C182.287 363.63 182.107 363.578 181.95 363.481C181.741 363.339 181.594 363.122 181.539 362.875C181.483 362.629 181.523 362.37 181.65 362.151C185.01 356.841 197.49 339.031 217.05 332.781C217.293 332.713 217.553 332.739 217.777 332.854C218.001 332.969 218.174 333.165 218.26 333.401C218.329 333.644 218.303 333.904 218.188 334.128C218.073 334.352 217.877 334.525 217.64 334.611C198.7 340.671 186.55 358.011 183.28 363.181C183.192 363.316 183.072 363.428 182.931 363.506C182.79 363.584 182.632 363.627 182.47 363.631V363.631Z" fill="#407BFF"/>
<path d="M182.47 363.632C182.347 363.633 182.224 363.609 182.11 363.562C181.879 363.46 181.695 363.275 181.595 363.043C181.495 362.811 181.486 362.55 181.57 362.312C184.528 355.041 189.001 348.483 194.691 343.076C200.381 337.668 207.158 333.535 214.57 330.952C214.789 330.936 215.007 330.993 215.19 331.113C215.374 331.233 215.512 331.411 215.585 331.617C215.658 331.824 215.66 332.049 215.593 332.258C215.525 332.467 215.391 332.647 215.21 332.772C208.051 335.261 201.505 339.247 196.008 344.465C190.511 349.682 186.189 356.012 183.33 363.032C183.257 363.202 183.137 363.348 182.985 363.454C182.833 363.559 182.655 363.621 182.47 363.632Z" fill="#407BFF"/>
<path d="M189.21 370.9C188.967 370.902 188.732 370.816 188.548 370.658C188.364 370.5 188.244 370.28 188.21 370.04C185.79 349.2 192.63 337.28 200.39 327.51C200.554 327.318 200.783 327.195 201.034 327.165C201.284 327.135 201.536 327.201 201.74 327.35C201.935 327.514 202.06 327.745 202.089 327.998C202.119 328.251 202.051 328.505 201.9 328.71C194.4 338.16 187.79 349.71 190.13 369.82C190.151 370.073 190.074 370.324 189.916 370.523C189.759 370.721 189.531 370.853 189.28 370.89L189.21 370.9Z" fill="#407BFF"/>
<path d="M186.53 368.721C186.322 368.716 186.12 368.646 185.953 368.52C185.786 368.395 185.663 368.22 185.6 368.021C182.6 356.971 184.83 339.691 197.07 327.841C197.255 327.67 197.498 327.574 197.75 327.574C198.003 327.574 198.245 327.67 198.43 327.841C198.605 328.026 198.702 328.271 198.702 328.526C198.702 328.781 198.605 329.026 198.43 329.211C187.28 340.001 184.48 356.631 187.48 367.481C187.54 367.727 187.504 367.987 187.38 368.208C187.256 368.429 187.052 368.595 186.81 368.671L186.53 368.721Z" fill="#407BFF"/>
<path d="M225.001 355.221C224.8 355.218 224.605 355.155 224.441 355.041C210.141 344.751 192.701 340.961 181.771 341.781C181.553 341.74 181.355 341.629 181.208 341.464C181.06 341.299 180.971 341.09 180.955 340.87C180.939 340.649 180.997 340.429 181.119 340.245C181.241 340.06 181.421 339.922 181.631 339.851C192.911 339.021 210.871 342.901 225.571 353.471C225.718 353.599 225.825 353.769 225.877 353.958C225.93 354.147 225.925 354.348 225.864 354.534C225.804 354.721 225.689 354.885 225.536 355.007C225.382 355.129 225.196 355.203 225.001 355.221Z" fill="#407BFF"/>
<path d="M225.2 352.55C225.066 352.554 224.932 352.526 224.81 352.47C211.99 346.78 192.59 346.03 179.69 350.71C179.565 350.8 179.42 350.86 179.268 350.884C179.116 350.909 178.96 350.898 178.813 350.853C178.665 350.807 178.53 350.728 178.419 350.622C178.307 350.515 178.221 350.385 178.168 350.24C178.116 350.095 178.097 349.94 178.114 349.787C178.131 349.633 178.183 349.486 178.267 349.356C178.35 349.227 178.463 349.118 178.595 349.039C178.727 348.96 178.876 348.912 179.03 348.9C192.35 344.06 212.36 344.84 225.59 350.71C225.817 350.821 225.994 351.014 226.085 351.249C226.175 351.485 226.174 351.746 226.08 351.98C226.001 352.147 225.876 352.289 225.721 352.39C225.565 352.491 225.385 352.546 225.2 352.55Z" fill="#407BFF"/>
<path d="M225.16 349.851C225.027 349.849 224.896 349.821 224.774 349.768C224.652 349.714 224.542 349.637 224.45 349.541C214.94 339.201 202.62 335.541 184.45 337.631C184.308 337.691 184.153 337.717 183.999 337.707C183.845 337.697 183.695 337.651 183.561 337.573C183.427 337.495 183.313 337.388 183.228 337.258C183.143 337.129 183.09 336.982 183.071 336.828C183.053 336.675 183.07 336.519 183.122 336.373C183.174 336.228 183.259 336.096 183.37 335.989C183.482 335.881 183.616 335.801 183.764 335.755C183.911 335.708 184.068 335.697 184.22 335.721C202.78 333.561 216 337.541 225.83 348.241C225.941 348.384 226.011 348.553 226.033 348.732C226.055 348.911 226.028 349.093 225.955 349.258C225.883 349.423 225.767 349.565 225.62 349.669C225.473 349.774 225.3 349.837 225.12 349.851H225.16Z" fill="#407BFF"/>
<path d="M224.44 345.93C224.185 345.924 223.942 345.82 223.76 345.64C211.87 333.78 195.1 332.07 187.51 334.64C187.29 334.654 187.072 334.596 186.889 334.473C186.706 334.351 186.568 334.172 186.498 333.963C186.427 333.754 186.427 333.528 186.498 333.32C186.569 333.111 186.707 332.932 186.89 332.81C194.94 330.08 212.66 331.81 225.12 344.27C225.292 344.455 225.387 344.698 225.387 344.95C225.387 345.202 225.292 345.445 225.12 345.63C224.941 345.814 224.697 345.921 224.44 345.93V345.93Z" fill="#407BFF"/>
<path d="M220 366.67C219.911 366.685 219.82 366.685 219.73 366.67C196.73 359.86 179.82 344.4 179.66 344.24C179.546 344.055 179.494 343.837 179.515 343.62C179.535 343.403 179.625 343.198 179.773 343.038C179.92 342.877 180.116 342.769 180.33 342.729C180.544 342.69 180.766 342.722 180.96 342.82C181.13 342.98 197.73 358.14 220.28 364.82C220.473 364.912 220.631 365.064 220.731 365.253C220.831 365.441 220.869 365.657 220.837 365.868C220.806 366.079 220.708 366.275 220.557 366.427C220.407 366.578 220.212 366.677 220 366.71V366.67Z" fill="#407BFF"/>
<path d="M220.461 366.081C220.33 366.079 220.201 366.052 220.081 366.001C206.164 359.787 192.831 352.34 180.241 343.751C180.094 343.699 179.962 343.615 179.854 343.504C179.746 343.393 179.665 343.259 179.618 343.111C179.571 342.964 179.559 342.807 179.582 342.654C179.606 342.501 179.665 342.356 179.754 342.229C179.844 342.103 179.961 341.999 180.098 341.926C180.234 341.852 180.385 341.812 180.54 341.807C180.695 341.802 180.849 341.834 180.989 341.898C181.13 341.963 181.254 342.06 181.351 342.181C193.83 350.694 207.046 358.073 220.841 364.231C221.019 364.337 221.16 364.496 221.243 364.686C221.327 364.876 221.35 365.087 221.308 365.291C221.266 365.494 221.162 365.679 221.01 365.821C220.858 365.962 220.666 366.053 220.461 366.081V366.081Z" fill="#407BFF"/>
<path d="M221.31 364.891C221.153 364.894 220.998 364.856 220.86 364.781C201.19 354.201 180.57 343.931 180.37 343.831C180.207 343.686 180.095 343.491 180.053 343.277C180.011 343.062 180.041 342.839 180.137 342.643C180.234 342.447 180.392 342.287 180.587 342.19C180.783 342.092 181.005 342.061 181.22 342.101C181.43 342.201 202.08 352.491 221.77 363.101C221.936 363.218 222.062 363.382 222.132 363.572C222.202 363.762 222.212 363.968 222.163 364.165C222.113 364.361 222.005 364.537 221.852 364.67C221.7 364.804 221.511 364.888 221.31 364.911V364.891Z" fill="#407BFF"/>
<path d="M222 363.831C221.786 363.835 221.578 363.764 221.41 363.631C203.55 349.631 181.1 343.131 180.87 343.071C180.68 342.958 180.533 342.786 180.451 342.581C180.37 342.376 180.358 342.149 180.419 341.937C180.479 341.724 180.608 341.538 180.786 341.407C180.964 341.275 181.18 341.207 181.4 341.211C181.63 341.281 204.4 347.861 222.6 362.111C222.792 362.275 222.915 362.504 222.945 362.755C222.975 363.005 222.909 363.257 222.76 363.461C222.671 363.578 222.556 363.672 222.424 363.736C222.292 363.801 222.147 363.833 222 363.831V363.831Z" fill="#407BFF"/>
<path d="M223.84 359.952C223.619 359.951 223.405 359.877 223.23 359.742C206.87 346.302 181.23 343.132 181.01 343.102C180.805 343.02 180.633 342.873 180.52 342.684C180.407 342.494 180.36 342.272 180.386 342.053C180.412 341.834 180.51 341.63 180.665 341.472C180.819 341.314 181.022 341.212 181.24 341.182C181.5 341.182 207.65 344.452 224.46 358.252C224.648 358.419 224.765 358.651 224.789 358.901C224.813 359.151 224.742 359.401 224.59 359.602C224.498 359.71 224.383 359.798 224.253 359.858C224.124 359.918 223.983 359.95 223.84 359.952V359.952Z" fill="#407BFF"/>
<path d="M193.691 373.361C193.498 373.34 193.316 373.264 193.166 373.142C193.016 373.02 192.904 372.857 192.845 372.673C192.786 372.488 192.781 372.291 192.832 372.104C192.882 371.918 192.986 371.749 193.131 371.621C211.361 358.431 221.771 340.131 221.871 339.951C221.908 339.802 221.98 339.663 222.08 339.547C222.18 339.43 222.306 339.338 222.447 339.278C222.588 339.217 222.742 339.19 222.895 339.199C223.049 339.207 223.198 339.251 223.332 339.327C223.466 339.402 223.58 339.508 223.667 339.635C223.753 339.762 223.809 339.907 223.83 340.06C223.851 340.212 223.837 340.367 223.789 340.513C223.74 340.659 223.659 340.791 223.551 340.901C223.451 341.081 212.831 359.751 194.261 373.181C194.093 373.297 193.894 373.36 193.691 373.361Z" fill="#407BFF"/>
<g opacity="0.3">
<path d="M212 368.561C199.897 368.438 188.232 364.014 179.09 356.081C178.972 355.897 178.917 355.68 178.934 355.462C178.95 355.244 179.038 355.038 179.183 354.875C179.328 354.711 179.523 354.6 179.737 354.558C179.952 354.516 180.174 354.545 180.37 354.641C188.37 361.781 202.65 368.541 218.58 366.141C218.721 366.079 218.873 366.051 219.027 366.058C219.18 366.065 219.329 366.107 219.464 366.181C219.598 366.255 219.714 366.359 219.801 366.485C219.889 366.611 219.947 366.755 219.97 366.907C219.993 367.058 219.98 367.213 219.934 367.36C219.888 367.506 219.808 367.639 219.702 367.75C219.596 367.86 219.465 367.945 219.321 367.997C219.177 368.05 219.023 368.068 218.87 368.051C216.596 368.391 214.3 368.562 212 368.561V368.561Z" fill="black"/>
<path d="M209.48 371.419C197.69 371.419 187.62 366.779 178.83 357.319C178.659 357.134 178.563 356.891 178.563 356.639C178.563 356.387 178.659 356.144 178.83 355.959C179.016 355.785 179.261 355.688 179.515 355.688C179.77 355.688 180.015 355.785 180.2 355.959C189.93 366.439 201.3 370.729 214.95 369.109C215.093 369.049 215.247 369.023 215.402 369.033C215.556 369.043 215.706 369.089 215.84 369.167C215.973 369.245 216.087 369.353 216.172 369.482C216.257 369.611 216.311 369.758 216.33 369.912C216.348 370.065 216.331 370.221 216.279 370.367C216.227 370.512 216.142 370.644 216.031 370.751C215.919 370.859 215.784 370.939 215.637 370.985C215.489 371.032 215.333 371.043 215.18 371.019C213.29 371.267 211.387 371.401 209.48 371.419V371.419Z" fill="black"/>
<path d="M192.06 372.58C191.811 372.581 191.571 372.489 191.386 372.323C191.201 372.157 191.085 371.927 191.06 371.68C190.22 360.4 194.11 342.44 204.67 327.75C204.84 327.611 205.051 327.533 205.27 327.526C205.489 327.519 205.704 327.584 205.882 327.711C206.06 327.839 206.192 328.021 206.257 328.23C206.322 328.439 206.316 328.664 206.24 328.87C196 343.18 192.21 360.61 193 371.54C193.002 371.787 192.912 372.026 192.747 372.211C192.583 372.395 192.356 372.513 192.11 372.54L192.06 372.58Z" fill="black"/>
<path d="M182.47 363.629C182.286 363.628 182.106 363.576 181.95 363.479C181.741 363.337 181.594 363.12 181.538 362.874C181.483 362.627 181.522 362.368 181.65 362.149C185.01 356.839 197.49 339.029 217.05 332.779C217.293 332.711 217.552 332.737 217.777 332.852C218.001 332.967 218.174 333.163 218.26 333.399C218.328 333.642 218.302 333.902 218.187 334.126C218.072 334.35 217.877 334.523 217.64 334.609C198.7 340.669 186.55 358.009 183.28 363.179C183.191 363.314 183.071 363.426 182.93 363.504C182.789 363.582 182.631 363.625 182.47 363.629V363.629Z" fill="black"/>
<path d="M182.47 363.63C182.347 363.631 182.224 363.607 182.11 363.56C181.879 363.458 181.695 363.273 181.595 363.041C181.495 362.809 181.486 362.548 181.57 362.31C184.528 355.039 189.001 348.481 194.691 343.074C200.381 337.666 207.158 333.533 214.57 330.95C214.789 330.934 215.007 330.991 215.19 331.111C215.374 331.231 215.512 331.409 215.585 331.616C215.658 331.822 215.66 332.047 215.593 332.256C215.525 332.465 215.391 332.645 215.21 332.77C208.051 335.259 201.505 339.245 196.008 344.463C190.511 349.681 186.189 356.01 183.33 363.03C183.257 363.2 183.137 363.346 182.985 363.452C182.833 363.558 182.655 363.619 182.47 363.63Z" fill="black"/>
<path d="M189.21 370.9C188.967 370.902 188.732 370.816 188.548 370.658C188.364 370.5 188.244 370.28 188.21 370.04C185.79 349.2 192.63 337.28 200.39 327.51C200.554 327.318 200.783 327.195 201.034 327.165C201.284 327.135 201.536 327.201 201.74 327.35C201.935 327.514 202.06 327.745 202.089 327.998C202.119 328.251 202.051 328.505 201.9 328.71C194.4 338.16 187.79 349.71 190.13 369.82C190.151 370.073 190.074 370.324 189.916 370.523C189.759 370.721 189.531 370.853 189.28 370.89L189.21 370.9Z" fill="black"/>
<path d="M186.53 368.719C186.322 368.714 186.12 368.644 185.953 368.518C185.786 368.393 185.663 368.218 185.6 368.019C182.6 356.969 184.83 339.689 197.07 327.839C197.255 327.668 197.498 327.572 197.75 327.572C198.003 327.572 198.245 327.668 198.43 327.839C198.605 328.025 198.702 328.269 198.702 328.524C198.702 328.779 198.605 329.024 198.43 329.209C187.28 339.999 184.48 356.629 187.48 367.479C187.54 367.725 187.504 367.985 187.38 368.206C187.256 368.427 187.052 368.593 186.81 368.669L186.53 368.719Z" fill="black"/>
<path d="M225 355.221C224.8 355.218 224.604 355.155 224.44 355.041C210.14 344.751 192.7 340.961 181.77 341.781C181.553 341.74 181.355 341.629 181.207 341.464C181.059 341.299 180.971 341.09 180.955 340.87C180.939 340.649 180.996 340.429 181.119 340.245C181.241 340.06 181.421 339.922 181.63 339.851C192.91 339.021 210.87 342.901 225.57 353.471C225.718 353.599 225.825 353.769 225.877 353.958C225.929 354.147 225.925 354.348 225.864 354.534C225.803 354.721 225.689 354.885 225.535 355.007C225.382 355.129 225.196 355.203 225 355.221Z" fill="black"/>
<path d="M225.2 352.55C225.066 352.554 224.932 352.526 224.81 352.47C211.99 346.78 192.59 346.03 179.69 350.71C179.565 350.8 179.42 350.86 179.268 350.884C179.116 350.909 178.96 350.898 178.813 350.853C178.665 350.807 178.53 350.728 178.419 350.622C178.307 350.515 178.221 350.385 178.168 350.24C178.116 350.095 178.097 349.94 178.114 349.787C178.131 349.633 178.183 349.486 178.267 349.356C178.35 349.227 178.463 349.118 178.595 349.039C178.727 348.96 178.876 348.912 179.03 348.9C192.35 344.06 212.36 344.84 225.59 350.71C225.817 350.821 225.994 351.014 226.085 351.249C226.175 351.485 226.174 351.746 226.08 351.98C226.001 352.147 225.876 352.289 225.721 352.39C225.565 352.491 225.385 352.546 225.2 352.55Z" fill="black"/>
<path d="M225.16 349.849C225.027 349.847 224.896 349.819 224.774 349.766C224.652 349.712 224.542 349.635 224.45 349.539C214.94 339.199 202.62 335.539 184.45 337.629C184.307 337.689 184.153 337.715 183.998 337.705C183.844 337.695 183.694 337.649 183.56 337.571C183.427 337.493 183.313 337.386 183.228 337.256C183.143 337.127 183.089 336.98 183.071 336.826C183.052 336.673 183.07 336.517 183.121 336.371C183.173 336.226 183.258 336.094 183.37 335.987C183.481 335.879 183.616 335.799 183.763 335.753C183.911 335.707 184.067 335.695 184.22 335.719C202.78 333.559 216 337.539 225.83 348.239C225.941 348.382 226.011 348.551 226.033 348.73C226.055 348.909 226.028 349.091 225.955 349.256C225.882 349.421 225.766 349.563 225.619 349.668C225.472 349.772 225.3 349.835 225.12 349.849H225.16Z" fill="black"/>
<path d="M224.44 345.93C224.185 345.924 223.942 345.82 223.76 345.64C211.87 333.78 195.1 332.07 187.51 334.64C187.29 334.654 187.072 334.596 186.889 334.473C186.706 334.351 186.568 334.172 186.498 333.963C186.427 333.754 186.427 333.528 186.498 333.32C186.569 333.111 186.707 332.932 186.89 332.81C194.94 330.08 212.66 331.81 225.12 344.27C225.292 344.455 225.387 344.698 225.387 344.95C225.387 345.202 225.292 345.445 225.12 345.63C224.941 345.814 224.697 345.921 224.44 345.93V345.93Z" fill="black"/>
<path d="M220 366.67C219.911 366.685 219.819 366.685 219.73 366.67C196.73 359.86 179.82 344.4 179.66 344.24C179.545 344.055 179.494 343.837 179.514 343.62C179.534 343.403 179.625 343.198 179.772 343.038C179.919 342.877 180.115 342.769 180.329 342.729C180.544 342.69 180.765 342.722 180.96 342.82C181.13 342.98 197.73 358.14 220.28 364.82C220.473 364.912 220.63 365.064 220.731 365.253C220.831 365.441 220.868 365.657 220.837 365.868C220.805 366.079 220.707 366.275 220.557 366.427C220.406 366.578 220.211 366.677 220 366.71V366.67Z" fill="black"/>
<path d="M220.46 366.081C220.329 366.079 220.2 366.052 220.08 366.001C206.163 359.787 192.83 352.34 180.24 343.751C180.094 343.699 179.962 343.615 179.854 343.504C179.746 343.393 179.665 343.259 179.618 343.111C179.571 342.964 179.558 342.807 179.582 342.654C179.606 342.501 179.664 342.356 179.754 342.229C179.843 342.103 179.961 341.999 180.097 341.926C180.233 341.852 180.385 341.812 180.54 341.807C180.694 341.802 180.848 341.834 180.989 341.898C181.129 341.963 181.253 342.06 181.35 342.181C193.829 350.694 207.045 358.073 220.84 364.231C221.018 364.337 221.159 364.496 221.243 364.686C221.326 364.876 221.349 365.087 221.307 365.291C221.265 365.494 221.162 365.679 221.01 365.821C220.858 365.962 220.666 366.053 220.46 366.081V366.081Z" fill="black"/>
<path d="M221.31 364.889C221.153 364.892 220.998 364.854 220.86 364.779C201.19 354.199 180.57 343.929 180.37 343.829C180.207 343.684 180.095 343.489 180.053 343.275C180.011 343.06 180.041 342.837 180.137 342.641C180.234 342.445 180.392 342.285 180.587 342.188C180.783 342.09 181.005 342.059 181.22 342.099C181.43 342.199 202.08 352.489 221.77 363.099C221.936 363.216 222.062 363.38 222.132 363.57C222.202 363.76 222.212 363.966 222.163 364.163C222.113 364.359 222.005 364.535 221.852 364.668C221.7 364.802 221.511 364.886 221.31 364.909V364.889Z" fill="black"/>
<path d="M222 363.829C221.786 363.833 221.577 363.762 221.41 363.629C203.55 349.629 181.1 343.129 180.87 343.069C180.68 342.957 180.533 342.784 180.451 342.579C180.369 342.374 180.358 342.147 180.418 341.935C180.479 341.723 180.608 341.536 180.785 341.405C180.963 341.274 181.179 341.205 181.4 341.209C181.63 341.279 204.4 347.859 222.6 362.109C222.792 362.273 222.915 362.502 222.945 362.753C222.974 363.003 222.908 363.255 222.76 363.459C222.671 363.576 222.556 363.67 222.424 363.734C222.292 363.799 222.147 363.831 222 363.829V363.829Z" fill="black"/>
<path d="M223.84 359.95C223.619 359.949 223.404 359.875 223.23 359.74C206.87 346.3 181.23 343.13 181.01 343.1C180.805 343.018 180.632 342.871 180.519 342.682C180.406 342.492 180.359 342.27 180.386 342.051C180.412 341.832 180.51 341.628 180.664 341.47C180.819 341.312 181.021 341.21 181.24 341.18C181.5 341.18 207.65 344.45 224.46 358.25C224.647 358.417 224.765 358.649 224.789 358.899C224.813 359.149 224.742 359.399 224.59 359.6C224.497 359.708 224.382 359.796 224.253 359.856C224.123 359.916 223.983 359.948 223.84 359.95V359.95Z" fill="black"/>
<path d="M193.69 373.361C193.498 373.34 193.315 373.264 193.165 373.142C193.015 373.02 192.904 372.857 192.844 372.673C192.785 372.488 192.781 372.291 192.831 372.104C192.882 371.918 192.986 371.749 193.13 371.621C211.36 358.431 221.77 340.131 221.87 339.951C221.908 339.802 221.98 339.663 222.08 339.547C222.18 339.43 222.305 339.338 222.447 339.278C222.588 339.217 222.741 339.19 222.895 339.199C223.048 339.207 223.198 339.251 223.331 339.327C223.465 339.402 223.58 339.508 223.666 339.635C223.753 339.762 223.808 339.907 223.83 340.06C223.851 340.212 223.837 340.367 223.788 340.513C223.74 340.659 223.658 340.791 223.55 340.901C223.45 341.081 212.83 359.751 194.26 373.181C194.093 373.297 193.894 373.36 193.69 373.361Z" fill="black"/>
</g>
</svg>
