<svg width="22" height="35" viewBox="0 0 22 35" fill="none" xmlns="http://www.w3.org/2000/svg">
<path d="M11 0C8.08368 0.00430059 5.28779 1.45434 3.22563 4.03203C1.16348 6.60973 0.00345217 10.1046 1.17029e-05 13.75C-0.00348119 16.729 0.774991 19.6272 2.21601 22C2.21601 22 2.51601 22.4937 2.56501 22.565L11 35L19.439 22.5588C19.483 22.4925 19.784 22 19.784 22L19.785 21.9963C21.2253 19.6245 22.0034 16.7277 22 13.75C21.9965 10.1046 20.8365 6.60973 18.7744 4.03203C16.7122 1.45434 13.9163 0.00430059 11 0ZM14.6 20L11 17.1362L7.4 20L8 14.9075L5.00001 11.4663L9.2 10.8325L11 6.25L12.912 10.8337L17 11.4663L14 14.9075L14.6 20Z" fill="#10E057"/>
<path d="M4.05038 17.1414C4.05038 17.1414 3.91538 18.0245 4.22897 18.8036C4.49054 19.4561 5.16835 20.3153 6.46491 20.9706C7.76147 21.6259 9.25069 21.8566 11.4487 21.9016C13.6466 21.948 15.9051 21.4347 16.9893 20.4827C18.0749 19.5292 18.4546 18.7277 18.4237 17.8572C18.3927 16.9867 17.9301 16.6562 17.9301 16.6562L4.05038 17.1414V17.1414Z" fill="#FCB745"/>
<path d="M4.67888 16.2539L4.03763 16.8952C4.03763 16.8952 3.86326 17.753 4.83076 18.6811C5.56341 19.3828 6.85998 20.602 11.1659 20.6344C15.1962 20.6653 16.4633 19.7794 17.2409 19.1536C18.02 18.5278 18.3125 17.4408 18.2351 17.1356C18.1592 16.8305 17.9201 16.6547 17.9201 16.6547L4.67888 16.2539V16.2539Z" fill="#E78B20"/>
<path d="M4.95302 17.1702C4.95302 17.1702 4.77161 17.4782 4.83067 17.6737C4.87708 17.827 4.96848 18.4527 6.78395 19.2459C7.74442 19.6663 9.37848 20.0095 11.5005 19.9476C14.0177 19.8745 16.0343 19.3682 17.0102 18.4513C18.01 17.5134 17.8188 16.9551 17.8188 16.9551L4.95302 17.1702V17.1702Z" fill="#FFD290"/>
<path d="M4.43435 15.0332C4.43435 15.0332 3.83247 15.6463 3.73263 15.9191C3.63841 16.1765 3.65107 16.5505 3.81701 16.8529C4.0406 17.2579 4.31904 17.3001 4.66357 17.5068C5.03622 17.729 5.62544 18.4223 7.07529 18.7274C8.52513 19.0326 10.4334 19.1704 11.4558 19.1704C12.4781 19.1704 13.8365 19.1549 15.1036 18.7274C16.3706 18.2999 17.8204 17.4604 18.1565 16.7123C18.4926 15.9641 18.172 15.5212 18.172 15.5212L17.4393 15.0332H4.43435V15.0332Z" fill="#6D544D"/>
<path d="M4.08278 14.254C4.08278 14.254 3.61591 14.2329 3.50341 14.9402C3.42185 15.4549 3.7931 15.7798 3.7931 15.7798C3.7931 15.7798 3.59622 16.0624 3.82403 16.421C4.03778 16.7571 4.267 16.833 4.7395 16.909C5.07981 16.9638 5.25841 16.8626 5.70138 17.1073C6.25685 17.4138 6.4945 17.9623 7.2581 18.1296C8.02169 18.2969 8.87669 18.1451 8.90622 18.0227C8.93575 17.9004 7.83747 17.4433 5.85325 16.3282C5.18388 15.9527 4.57075 15.4423 4.40341 15.1835C4.23606 14.9248 4.08278 14.254 4.08278 14.254V14.254ZM13.6847 17.9777C13.6847 18.176 14.3414 18.0846 14.6465 17.9173C14.9517 17.7499 15.4397 17.3224 15.8826 17.1382C16.3256 16.9554 16.4929 17.1227 17.1342 16.8176C17.7754 16.5124 18.127 15.7952 18.127 15.7952C18.127 15.7952 18.4392 15.4099 18.4645 15.1399C18.5039 14.7279 18.4631 14.5282 18.1734 14.4368C17.8837 14.3454 17.2523 15.2946 17.1609 15.4015C17.0695 15.5083 15.7167 16.4969 15.1823 16.878C14.6479 17.2591 13.6847 17.8708 13.6847 17.9777V17.9777Z" fill="#9B7169"/>
<path d="M4.67869 13.7352C4.67869 13.7352 3.9151 13.8266 3.80822 14.1472C3.70135 14.4678 4.03744 14.9403 4.92197 15.5366C5.6476 16.0245 8.13385 17.1987 9.11963 17.8105C10.2488 18.5122 11.2051 19.4923 11.364 19.505C11.5623 19.5205 12.939 18.058 14.8445 16.7727C16.6557 15.5492 17.8974 15.2469 18.3404 14.3455C18.5781 13.8617 18.0043 13.5819 18.0043 13.5819L10.6468 10.7891L4.67869 13.7352Z" fill="#FFE869"/>
<path d="M11.4554 18.6813C11.6833 18.656 12.8743 17.5057 14.2792 16.6212C15.684 15.7366 17.7597 14.7888 18.0648 14.2559C18.37 13.7229 17.6373 13.3699 17.6373 13.3699L9.08872 11.9355L4.08247 13.9043C4.08247 13.9043 3.80825 13.9957 3.99106 14.2249C4.17388 14.4541 4.46356 14.8352 5.10481 15.2318C5.88388 15.7141 7.88356 16.5143 9.14919 17.2005C10.4176 17.8868 11.1812 18.7109 11.4554 18.6813Z" fill="#FFBE01"/>
<path d="M4.77197 14.1332L5.03775 14.8448C5.03775 14.8448 6.95025 16.7727 10.7542 16.8487C14.5398 16.9246 16.6618 15.1232 16.6618 15.1232L17.1456 13.9082L4.77197 14.1332V14.1332Z" fill="#F4482B"/>
<path d="M9.7583 15.3077L9.45877 15.7873C9.45877 15.7873 10.0986 16.1712 10.2828 16.2373C10.5472 16.3315 10.8074 16.2977 11.1969 16.1768C11.5864 16.0573 13.2036 15.4132 13.2036 15.4132C13.2036 15.4132 14.541 15.4329 15.3805 15.4484C16.1244 15.4624 16.8697 15.1952 17.2592 14.7452C17.6488 14.2952 18.2535 13.3305 18.2535 13.3305C18.2535 13.3305 18.5685 13.256 18.778 13.0155C18.9875 12.7751 19.003 12.5655 19.003 12.5655C19.003 12.5655 18.9425 12.1605 18.7189 12.0565C18.4939 11.951 8.47299 11.3379 8.47299 11.3379L4.45814 11.6374L3.78174 13.031L6.01346 14.9337L9.15924 15.1137L9.7583 15.3077V15.3077Z" fill="#A6B732"/>
<path d="M3.99141 11.8035C3.765 11.7009 3.52735 11.7135 3.42188 12.013C3.31641 12.3126 3.34875 12.4448 3.34875 12.4448C3.34875 12.4448 3.04079 12.5095 3.00282 12.8962C2.95782 13.3602 3.46688 13.5248 3.46688 13.5248C3.46688 13.5248 3.49079 13.7048 3.69188 13.8848C3.9211 14.0901 4.15032 14.069 4.15032 14.069C4.15032 14.069 4.755 14.6638 5.16 14.9029C5.565 15.142 6.1486 15.3079 6.7336 15.2924C7.3186 15.277 7.51266 15.0084 7.94719 15.1574C8.38172 15.3065 9.53344 15.9126 9.9975 15.9224C10.7316 15.9379 12.3192 14.7988 12.6792 14.8143C13.0392 14.8298 14.6719 15.0843 15.5409 15.0843C16.41 15.0843 16.725 14.8298 16.9191 14.5752C17.1131 14.3207 17.4436 13.6766 17.3381 13.6612C17.2327 13.6457 16.5436 14.2152 16.05 14.1702C15.555 14.1252 15.1219 13.8412 14.5073 13.8412C13.8928 13.8412 10.8975 14.2307 10.702 14.3207C10.5066 14.4107 9.66844 15.0548 9.50391 15.0252C9.33938 14.9957 8.76985 14.5162 8.57579 14.4107C8.38172 14.3052 6.33844 14.2377 6.04454 14.2912C5.8336 14.3291 5.53547 14.3812 5.53547 14.3812C5.53547 14.3812 5.565 13.9171 5.31047 13.6471C5.05594 13.3771 4.21641 12.913 4.21641 12.913C4.21641 12.913 4.32047 11.9526 3.99141 11.8035V11.8035ZM17.2777 12.6121C17.2777 12.6121 18.1917 12.6121 18.4463 12.5966C18.7008 12.5812 19.0003 12.5671 19.0003 12.5671C19.0003 12.5671 18.9131 12.1523 18.7809 11.9315C18.5109 11.4787 17.8613 11.3535 17.8613 11.3535L17.2777 12.6121V12.6121Z" fill="#C2DD1F"/>
<path d="M3.78197 11.2495L3.68213 11.691C3.68213 11.691 5.06447 14.1393 11.2773 14.2321C14.9138 14.287 17.0035 13.183 17.926 12.2802C18.4787 11.7388 18.497 11.2129 18.497 11.2129L3.78197 11.2495Z" fill="#DE8010"/>
<path d="M3.46686 10.0317C3.38811 11.2551 3.68623 11.6939 3.68623 11.6939C3.68623 11.6939 5.74217 13.5558 10.9931 13.6415C16.3748 13.7287 18.1242 11.9442 18.4308 11.4239C18.6262 11.0934 18.7823 10.4451 18.6586 9.50013C18.4533 7.93919 16.6561 4.97763 10.9678 5.00013C5.27951 5.02263 3.58217 8.2556 3.46686 10.0317Z" fill="url(#paint0_radial_409_16)"/>
<path d="M8.87103 6.52352C8.91463 6.76258 7.83603 7.55852 7.67994 6.79492C7.53369 6.07633 8.83025 6.30274 8.87103 6.52352ZM9.25635 8.02117C9.3126 8.16883 10.4179 8.38117 10.2998 7.7582C10.176 7.10992 9.14103 7.71742 9.25635 8.02117ZM10.2253 6.31117C10.2534 6.52352 11.5415 6.77102 11.5148 6.17195C11.4824 5.43227 10.1929 6.06508 10.2253 6.31117V6.31117ZM8.10041 8.51336C8.10744 8.56117 7.79103 8.81008 7.4676 8.90711C7.18353 8.99289 6.89244 8.95633 6.8601 8.60336C6.82916 8.26305 7.07103 8.1393 7.36072 8.16883C7.694 8.20117 8.08635 8.42195 8.10041 8.51336ZM10.7765 9.50758C10.7231 9.28399 9.51228 8.9732 9.59385 9.68055C9.67681 10.3851 10.8342 9.74524 10.7765 9.50758V9.50758ZM11.9099 7.89742C11.8509 7.82852 11.5738 7.84117 11.2363 7.92977C10.9931 7.99445 10.8131 8.26867 10.9818 8.52883C11.1787 8.83258 11.5092 8.70461 11.7201 8.44727C11.8917 8.23914 11.976 7.97477 11.9099 7.89742V7.89742ZM13.2065 6.25352C13.1685 6.21274 12.8915 6.18461 12.6651 6.2943C12.4373 6.40399 12.2404 6.66555 12.4513 6.91024C12.6651 7.15633 12.9829 7.0143 13.1334 6.75414C13.2529 6.54461 13.2642 6.31539 13.2065 6.25352ZM14.0756 8.39383C14.039 8.16461 13.0209 7.7568 13.0279 8.38117C13.0349 9.02102 14.1079 8.60055 14.0756 8.39383ZM15.4832 7.2632C15.4495 7.08742 14.1543 6.94539 14.3751 7.5993C14.6043 8.28133 15.524 7.47695 15.4832 7.2632ZM13.7001 9.56383C13.7085 9.36695 12.7228 8.91555 12.6496 9.50617C12.5765 10.0968 13.6888 9.81977 13.7001 9.56383Z" fill="#FDEAC8"/>
<defs>
<radialGradient id="paint0_radial_409_16" cx="0" cy="0" r="1" gradientUnits="userSpaceOnUse" gradientTransform="translate(11.0191 6.68664) rotate(89.3583) scale(6.19318 10.7915)">
<stop offset="0.517" stop-color="#DF8016"/>
<stop offset="0.643" stop-color="#E58C21"/>
<stop offset="1" stop-color="#F5AC3C"/>
</radialGradient>
</defs>
</svg>
